# File generated by ImageToStl.com - Free Image and 3D model conversion tools

o obj1
v -13.5417 -0 -5
v -13.5417 -5 -5
v -13.5417 0 5
v -13.5417 -5 -0.995491
v -13.5417 -5 0.995491
v -13.5417 -18.4 -0.995491
v -13.5417 -5 5
v -13.5417 -18.4 0.995491
v 13.5417 -0 -5
v 13.5417 -5 -5
v 13.5417 0 5
v 13.5417 -5 5
v 8.69629 -5 -4.47535
v 13.5417 -5 -0.588081
v 13.2776 -5 -1.83031
v 12.1778 -5 -3.34415
v 10.5572 -5 -4.27975
v -5.05571 -5 1.83032
v -4.66667 -5 0
v 5.52609 -5 2.64503
v -7.77609 -5 -4.27975
v -5.05571 -5 -1.83031
v -6.15558 -5 -3.34415
v -7.77609 -5 4.27975
v -6.15558 -5 3.34415
v 8.69629 -5 4.47535
v 4.765 -5 -0.935603
v 4.765 -5 0.935603
v 5.52609 -5 -2.64503
v 10.5572 -5 4.27975
v 12.1778 -5 3.34415
v 13.2776 -5 1.83032
v 13.5417 -5 0.588081
v 6.91667 -5 3.89711
v -12.8072 -5 2.64503
v -11.4167 -5 3.89711
v -9.63704 -5 4.47535
v 6.91667 -5 -3.89711
v -9.63704 -5 -4.47535
v -12.8072 -5 -2.64503
v -11.4167 -5 -3.89711
v -12.8072 -18.4 2.64503
v -12.8072 -18.4 -2.64503
v -9.63704 -18.4 -4.47535
v -11.4167 -18.4 -3.89711
v -7.77609 -18.4 -4.27975
v -6.15558 -18.4 -3.34415
v -5.05571 -18.4 -1.83031
v -4.66667 -18.4 0
v -5.05571 -18.4 1.83032
v -6.15558 -18.4 3.34415
v -7.77609 -18.4 4.27975
v -9.63704 -18.4 4.47535
v -11.4167 -18.4 3.89711
v 13.5417 -18.4 0.588081
v 13.5417 -18.4 -0.588081
v 13.2776 -18.4 1.83032
v 12.1778 -18.4 3.34415
v 10.5572 -18.4 4.27975
v 8.69629 -18.4 4.47535
v 6.91667 -18.4 3.89711
v 5.52609 -18.4 2.64503
v 4.765 -18.4 0.935603
v 4.765 -18.4 -0.935603
v 5.52609 -18.4 -2.64503
v 6.91667 -18.4 -3.89711
v 8.69629 -18.4 -4.47535
v 10.5572 -18.4 -4.27975
v 12.1778 -18.4 -3.34415
v 13.2776 -18.4 -1.83031
vn -1 0 -0
vn -0 -0 -1
vn 0 1 -0
vn -0 0 1
vn 0 -1 0
vn -0 -1 0
vn -0 -1 0
vn 0 -1 0
vn -0 -1 0
vn -0 -1 0
vn -0 -1 0
vn 0 -1 0
vn -0 -1 0
vn 0 -1 0
vn 0 -1 0
vn -0 -1 0
vn -0 -1 0
vn -0 -1 0
vn 0 -1 0
vn 0 -1 -0
vn 0 -1 0
vn 0 -1 0
vn 0 -1 0
vn 0 -1 0
vn 0 -1 0
vn -0 -1 0
vn -0.91354 0 0.40674
vn -0.91354 0 0.40674
vn 0 -1 0
vn 0 -1 0
vn 0 -1 0
vn -0 -1 0
vn -0 -1 0
vn -0 -1 0
vn -0 -1 0
vn -0 -1 0
vn -0.91354 -0 -0.40674
vn -0.91354 -0 -0.40674
vn 1 0 0
vn -0.66913 -0 -0.74314
vn -0.66913 -0 -0.74314
vn -0.30902 -0 -0.95106
vn -0.30902 -0 -0.95106
vn 0.10453 -0 -0.99452
vn 0.10453 -0 -0.99452
vn 0.5 -0 -0.86603
vn 0.5 -0 -0.86603
vn 0.80902 -0 -0.58778
vn 0.97815 -0 -0.20791
vn 0.97815 -0 -0.20791
vn 0.97815 0 0.20791
vn 0.97815 0 0.20791
vn 0.80902 0 0.58778
vn 0.80902 0 0.58778
vn 0.5 0 0.86603
vn 0.5 0 0.86603
vn 0.10453 0 0.99452
vn 0.10453 0 0.99452
vn -0.30902 0 0.95106
vn -0.30902 0 0.95106
vn -0.66913 0 0.74314
vn -0.66913 0 0.74314
vn 0.97815 0 0.20791
vn 0.97815 0 0.20791
vn -0.91354 0 0.40674
vn -0.91354 -0 -0.40674
vn 0.97815 -0 -0.20791
vn 0 -1 0
vn 0 -1 0
vn 0 -1 0
vn -0 -1 0
vn -0 -1 0
vn -0 -1 0
vn -0 -1 0
vn 0 -1 0
f 1//1 2//1 3//1
f 3//1 2//1 4//1
f 5//1 4//1 6//1
f 3//1 4//1 5//1
f 7//1 3//1 5//1
f 5//1 6//1 8//1
f 1//2 9//2 2//2
f 2//2 9//2 10//2
f 1//3 3//3 9//3
f 9//3 3//3 11//3
f 11//4 3//4 7//4
f 12//4 11//4 7//4
f 13//5 2//5 10//5
f 14//6 15//6 10//6
f 15//7 16//7 10//7
f 16//8 17//8 10//8
f 18//9 19//9 20//9
f 21//5 2//5 13//5
f 22//10 23//10 13//10
f 24//11 25//11 26//11
f 19//12 27//12 28//12
f 19//5 29//5 27//5
f 19//5 22//5 29//5
f 12//5 26//5 30//5
f 12//13 30//13 31//13
f 12//14 31//14 32//14
f 12//15 32//15 33//15
f 12//5 7//5 26//5
f 18//16 34//16 26//16
f 18//5 20//5 34//5
f 7//17 5//17 35//17
f 7//18 35//18 36//18
f 7//5 37//5 26//5
f 7//19 36//19 37//19
f 37//5 24//5 26//5
f 20//20 19//20 28//20
f 25//21 18//21 26//21
f 22//22 13//22 38//22
f 23//23 21//23 13//23
f 39//5 2//5 21//5
f 40//24 2//24 41//24
f 4//25 2//25 40//25
f 39//26 41//26 2//26
f 17//5 13//5 10//5
f 38//5 29//5 22//5
f 5//27 8//27 35//27
f 35//28 8//28 42//28
f 8//29 6//29 43//29
f 44//30 8//30 45//30
f 45//31 8//31 43//31
f 46//32 8//32 44//32
f 47//33 8//33 46//33
f 48//34 8//34 47//34
f 49//35 8//35 48//35
f 50//36 8//36 49//36
f 51//5 8//5 50//5
f 52//5 8//5 51//5
f 53//5 8//5 52//5
f 54//5 8//5 53//5
f 42//5 8//5 54//5
f 4//37 40//37 6//37
f 6//38 40//38 43//38
f 10//39 9//39 11//39
f 14//39 10//39 11//39
f 33//39 14//39 11//39
f 12//39 33//39 11//39
f 55//39 14//39 33//39
f 56//39 14//39 55//39
f 40//40 41//40 43//40
f 43//41 41//41 45//41
f 41//42 39//42 45//42
f 45//43 39//43 44//43
f 39//44 21//44 44//44
f 44//45 21//45 46//45
f 21//46 23//46 46//46
f 46//47 23//47 47//47
f 47//48 23//48 22//48
f 48//48 47//48 22//48
f 48//49 22//49 19//49
f 49//50 48//50 19//50
f 19//51 18//51 50//51
f 49//52 19//52 50//52
f 18//53 25//53 51//53
f 50//54 18//54 51//54
f 25//55 24//55 52//55
f 51//56 25//56 52//56
f 24//57 37//57 53//57
f 52//58 24//58 53//58
f 37//59 36//59 54//59
f 53//60 37//60 54//60
f 36//61 35//61 42//61
f 54//62 36//62 42//62
f 33//63 32//63 57//63
f 55//64 33//64 57//64
f 32//53 31//53 58//53
f 57//54 32//54 58//54
f 31//55 30//55 59//55
f 58//56 31//56 59//56
f 30//57 26//57 60//57
f 59//58 30//58 60//58
f 26//59 34//59 61//59
f 60//60 26//60 61//60
f 34//61 20//61 62//61
f 61//62 34//62 62//62
f 28//65 63//65 20//65
f 20//28 63//28 62//28
f 27//1 64//1 28//1
f 28//1 64//1 63//1
f 27//37 29//37 64//37
f 64//66 29//66 65//66
f 29//40 38//40 65//40
f 65//41 38//41 66//41
f 38//42 13//42 66//42
f 66//43 13//43 67//43
f 13//44 17//44 67//44
f 67//45 17//45 68//45
f 17//46 16//46 68//46
f 68//47 16//47 69//47
f 69//48 16//48 15//48
f 70//48 69//48 15//48
f 70//49 15//49 14//49
f 56//67 70//67 14//67
f 63//68 64//68 65//68
f 67//69 63//69 66//69
f 66//70 63//70 65//70
f 68//71 63//71 67//71
f 69//72 63//72 68//72
f 70//73 63//73 69//73
f 56//74 63//74 70//74
f 55//75 63//75 56//75
f 57//5 63//5 55//5
f 58//5 63//5 57//5
f 59//5 63//5 58//5
f 60//5 63//5 59//5
f 61//5 63//5 60//5
f 62//5 63//5 61//5
# Vertices: 70, normals: 75, texture coordinates: 0, faces: 136

