# File generated by ImageToStl.com - Free Image and 3D model conversion tools

o obj1
v 28.55762291 1.90315723 49.57526779
v 28.35383224 4.99579144 53.00260544
v 28.40202522 4.40633011 52.90154648
v 36.21321487 -3.93E-06 45.00017929
v 51.21303558 0.59999698 31.20015144
v 21.21308517 9.29999733 15.00012875
v 36.81321716 0.59999573 46.20018005
v -0.41283923 3.73543787 49.75504684
v -0.08266934 0.59999484 55.65024948
v 21.2132206 0.59997177 59.49780273
v 34.04752731 2.41670775 69.03767395
v 49.40151596 10.94450665 85.80024719
v 28.36964226 4.61484814 73.12519836
v 21.2132206 -2.794E-05 59.79780197
v 41.52540588 3.81856656 63.7501564
v 20.38790131 9.63860989 43.25984573
v 28.36964226 6.11484814 73.12519836
v -0.08266935 -4.89E-06 55.95025253
v 29.76313591 7.64999294 12.0000782
v 36.21321487 13.80000019 1.21E-06
v 4.41316509 14.85000038 1.3E-06
v 36.21321487 15.00000095 1.31E-06
v 21.21308517 9.89999962 15.00012875
v 37.44265366 -4.03E-06 46.14450836
v 51.2130394 -2.78E-06 31.80015755
v 36.90527344 -4.06E-06 46.44451141
v 51.2130394 -2.62E-06 30.00015831
v 51.21303558 0.5999971 30.0001545
v 51.21303558 14.99999809 15.00013065
v 51.81303787 14.39999866 15.00013065
v 28.36964226 5.51484728 73.12519836
v 41.52540588 5.61856699 63.7501564
v 59.61315155 0.5999977 23.5500946
v 42.46835709 2.35441303 12.37497044
v 59.61315155 0.59999722 28.50004959
v 51.21303558 1.19999766 31.20015144
v 14.98790169 9.33861065 42.65984344
v 14.98790169 8.73860931 42.65984344
v 23.01318741 4.95000267 36.62999725
v 1.93726277 3.9904635 48.67234421
v 22.771492 7.79613066 18.11691856
v 21.21308517 8.6999979 15.00012875
v 36.21321487 0 0
v 20.38790131 8.73860931 43.25984573
v 22.771492 7.19613028 18.11691856
v 22.63799286 6.84430456 29.16748619
v 51.24742508 1.24957049 29.7060051
v 51.21303558 0.44999713 30.60015297
v 34.69290161 3.66089225 3.2E-07
v 40.32947159 5.54412746 4.8E-07
v 40.32947159 6.14412737 5.4E-07
v 27.31156158 3.70315003 60.39429855
v 49.40151596 11.84450817 85.80024719
v 15.82078552 2.45699334 39.75734329
v 8.7652092 -3.74E-06 42.82520294
v 5.24127054 -4.46E-06 51.03773117
v 23.01318741 5.55000353 36.62999725
v 13.71317768 5.55000401 29.12998772
v 41.52540588 5.01856709 63.7501564
v 36.21321487 0.59999973 5E-08
v 57.38441467 0.59999698 31.62878609
v 52.84173965 0.59999698 31.6288166
v 52.84174728 -2.77E-06 31.62882042
v 57.38441467 -2.77E-06 31.62878609
v -0.08266934 -4.81E-06 55.05025101
v -0.11627328 0.31911364 55.05025101
v 0.41547519 -4.81E-06 55.05025482
v 22.771492 6.59613085 18.11691856
v 13.71317768 4.95000315 29.12998772
v 20.61309052 -1.31E-06 15.00013065
v 18.81308746 -2.62E-06 30.00015831
v 23.95063782 3.45000076 27.6525631
v -0.41283923 3.1354382 49.75504684
v 59.91315079 -2.06E-06 23.5500946
v 48.82333755 -1.45E-06 16.59606743
v 22.5897789 0.48371685 62.1190834
v 23.48191261 3.90000176 30.94128036
v 23.48191261 3.3000021 30.94128036
v 28.86321449 10.5 9.2E-07
v 36.21321487 13.19999981 1.15E-06
v 41.01322174 0 -0
v 59.91315079 -2.49E-06 28.50004959
v 27.31156158 2.80315042 60.39429855
v 34.91582108 5.61555099 69.1400528
v 28.40202904 -4.40633965 52.90155411
v 28.35383415 -4.99580145 53.00260925
v 28.55762482 -1.90316617 49.57527161
v 36.81322098 -0.60000384 46.20018387
v 21.21308708 -9.3000021 15.00013065
v 51.2130394 -0.60000253 31.20015717
v 21.2132225 -0.59998232 59.49781418
v -0.08266935 -0.60000467 55.6502533
v -0.41283926 -3.73544741 49.75505066
v 28.36964417 -4.61486197 73.12520599
v 49.40151978 -10.94452286 85.80026245
v 34.04753113 -2.41672039 69.03768921
v 41.5254097 -3.81857848 63.75016785
v 20.38790512 -9.63861942 43.25984955
v 28.36964417 -6.11486244 73.12520599
v 4.41316557 -14.85000324 -1.3E-06
v 36.2132225 -13.8000021 -1.21E-06
v 29.76313972 -7.64999628 12.00007915
v 36.2132225 -15.00000286 -1.31E-06
v 21.21308708 -9.90000439 15.00013065
v 51.2130394 -0.60000241 30.00015831
v 51.81304169 -14.40000534 15.00012875
v 51.2130394 -15.00000477 15.00012875
v 28.36964417 -5.51486158 73.12520599
v 41.5254097 -5.61857891 63.75016785
v 59.61315918 -0.60000229 28.5000515
v 42.4683609 -2.35441542 12.37497234
v 59.61315918 -0.60000181 23.55009651
v 51.2130394 -1.20000327 31.20015717
v 14.98790455 -9.33861923 42.65985107
v 1.93726313 -3.99047232 48.67234802
v 23.01319122 -4.95000982 36.63000488
v 14.98790455 -8.7386179 42.65985107
v 22.77149391 -7.79613495 18.11692238
v 21.21308708 -8.70000267 15.00013065
v 20.38790512 -8.7386179 43.25984955
v 22.63799667 -6.84431028 29.16749191
v 22.77149391 -7.19613361 18.11692238
v 51.24742889 -1.24957585 29.70600891
v 51.2130394 -0.45000249 30.60015678
v 40.3294754 -5.54412842 -4.8E-07
v 34.69290543 -3.66089272 -3.2E-07
v 40.3294754 -6.14412785 -5.4E-07
v 27.31156349 -3.703161 60.39430618
v 49.40151978 -11.84452343 85.80026245
v 15.82078838 -2.45700049 39.75734711
v 13.71317863 -5.55000973 29.12999153
v 23.01319122 -5.5500102 36.63000488
v 41.5254097 -5.01857901 63.75016785
v 36.2132225 -0.59999979 -5E-08
v 52.84174728 -0.60000253 31.62882042
v 57.38441849 -0.60000253 31.6287899
v -0.1162733 -0.3191233 55.05025482
v 22.77149391 -6.59613419 18.11692238
v 13.71317863 -4.95000887 29.12999153
v 23.95063972 -3.45000553 27.65256691
v -0.41283926 -3.1354475 49.75505066
v 22.58978271 -0.48372778 62.11909103
v 23.48191452 -3.9000082 30.94128418
v 23.48191452 -3.30000806 30.94128418
v 28.86321831 -10.50000191 -9.2E-07
v 36.2132225 -13.20000076 -1.15E-06
v 27.31156349 -2.80316114 60.39430618
v 34.91582489 -5.61556292 69.14006805
vn 0.59778 0.05061 -0.01012
vn 0.1299 -0.43103 0.39666
vn 0.11078 0.58002 0.10635
vn -0.05112 0.52662 0.28295
vn -0.0067 -0.53224 0.27691
vn 0.28153 0.44643 0.28538
vn 0.18564 -0.55899 0.11434
vn 0.1016 -0.59119 -0.01306
vn -0.53666 -0 0.26833
vn 0.31301 0.51174 -0.01206
vn 0.12462 -0.58659 -0.01967
vn -0.05576 0.52141 0.29158
vn -0.33214 0.49892 -0.02749
vn -0.05594 0.52023 0.29365
vn -0.59783 0.02281 0.04561
vn 0.0175 0.52986 0.28096
vn -0.42426 0 -0.42426
vn -0.42426 0 -0.42426
vn -0.20617 -0.44873 -0.34079
vn 0.35584 0.3416 0.3416
vn 0.35584 0.3416 0.3416
vn -0.54071 0.02254 0.25908
vn 0.6 0 0
vn 0.34641 0.34641 -0.34641
vn 0.41587 0 -0.4325
vn 0.6 0 -0.00047
vn 0.59798 0.04919 -0.00174
vn 0.22865 0.44832 -0.32669
vn 0.06108 0.59688 0
vn -0.28509 -0 0.52794
vn -0.09917 0.58338 0.09917
vn -0.077 0.45297 0.38586
vn -0.06066 0.52543 0.28326
vn -0.29102 0.17232 -0.49559
vn 0.06626 0 -0.59633
vn -0.53666 0 0.26833
vn -0.53666 -0 0.26833
vn 0.31271 0.51201 -0.00787
vn -0.30103 -0.51902 -0
vn -0.44851 -0.39814 -0.01809
vn 0.6 0 0
vn 0.3592 0.3592 0.31929
vn 0.59964 -0.02016 0.00504
vn 0.59964 -0.02015 0.00504
vn 0.18215 -0.54519 -0.17201
vn 0.4912 -0.26602 -0.21899
vn 0.56317 0 -0.20698
vn -0.16935 0.55842 0.13961
vn 0.43073 -0.41703 0.02355
vn -0.13161 0.58097 -0.07174
vn 0.26865 0.23718 0.48122
vn -0.23284 0.54388 -0.09991
vn -0.0852 0.58445 0.10565
vn 0.03196 0.52557 -0.28768
vn -0.55786 0 -0.2209
vn -0.49493 -0.33751 -0.03365
vn -0.08977 0.59173 0.04247
vn 0.44269 0 -0.405
vn -0.23393 -0.52204 0.18096
vn -0.42426 0 -0.42426
vn -0.00836 0.5153 -0.30723
vn -0.48186 0 -0.35751
vn 0 0 0.6
vn 0 -0 0.6
vn -0.42426 -0 0.42427
vn 0.6 0 -0
vn 0.6 2E-05 0
vn 1E-05 0 -0.6
vn -0.5967 -0.06283 -0
vn 0.03666 0.59831 0.02612
vn -0.11416 0.57787 0.11416
vn 0 0.59752 0.05445
vn -0.46339 0 -0.38114
vn -0.08615 0.59351 0.01786
vn -0.3617 0.2961 -0.37616
vn -0.55665 0.21371 -0.0668
vn -0.10764 -0.56438 -0.1729
vn -0.25033 0.50786 0.19852
vn -0.26254 -0.43747 -0.31575
vn -0.21894 -0.4982 -0.25271
vn 0.25615 -0.51306 -0.17652
vn 0.32689 0.16344 -0.47585
vn 0.31761 -0.0508 -0.5065
vn -0.51439 0.13813 0.27626
vn -0.59906 -0 0.03355
vn -0.5987 -0.03846 0.00872
vn 0.03943 -0.59035 0.09965
vn -0.0468 -0.55152 0.23159
vn -0.184 0.49633 -0.28248
vn -0.09461 0.58121 -0.11507
vn -0.26315 0.49824 -0.20617
vn -0.20114 -0.48292 -0.29383
vn -0.1224 -0.56506 -0.16039
vn -0.594 0 -0.08466
vn -0.07649 -0.59098 0.06996
vn -0.08175 -0.5857 0.10137
vn -0.37665 -0 0.46705
vn -0.29525 0.47786 -0.21088
vn -0.34243 0.49198 -0.02637
vn 0.48656 -0.2708 -0.22345
vn 0.16749 0.4409 -0.37089
vn 0.41587 0 -0.4325
vn 0.19905 -0.54185 -0.16366
vn 0.2927 0.50533 -0.13774
vn 0.26989 0.52354 -0.1143
vn -0.09572 0.2649 0.52978
vn -0.09572 0.26489 0.52978
vn -0.59732 0 -0.05663
vn -0.53121 -0 0.27896
vn -0.53121 0 0.27896
vn -0.53121 -0 0.27896
vn -0.25106 0 -0.54495
vn -0.25106 -0 -0.54495
vn -0.37117 0 -0.47141
vn 0.4526 0.2263 0.3224
vn 0.46664 -0 0.37715
vn 0.53666 0.26833 0
vn 0.53666 0.26833 0
vn -0 0 -0.6
vn 0 0 -0.6
vn 0 0 -0.6
vn -0 0 -0.6
vn 0 0 -0.6
vn -0 0 -0.6
vn -0 0 -0.6
vn -0 0 -0.6
vn -0.3097 -0 0.51389
vn 0.56504 0 -0.20183
vn -0.13787 -0 0.58395
vn -0.05849 0.58142 -0.13612
vn -0.07229 0.5758 -0.15242
vn 0.45278 0 -0.39369
vn 0.45278 0 -0.39369
vn 0.59778 -0.05061 -0.01012
vn 0.1299 0.43103 0.39666
vn 0.11078 -0.58002 0.10635
vn -0.05112 -0.52662 0.28295
vn -0.0067 0.53224 0.27691
vn 0.28153 -0.44643 0.28538
vn 0.18564 0.55899 0.11434
vn 0.1016 0.59119 -0.01306
vn -0.53666 0 0.26833
vn 0.31301 -0.51174 -0.01206
vn 0.12462 0.58659 -0.01967
vn -0.05576 -0.52141 0.29158
vn -0.33214 -0.49892 -0.02749
vn -0.05594 -0.52023 0.29365
vn -0.59783 -0.02281 0.04561
vn 0.0175 -0.52986 0.28096
vn -0.42426 0 -0.42426
vn -0.42426 0 -0.42426
vn -0.20617 0.44873 -0.34079
vn 0.35584 -0.3416 0.3416
vn 0.35584 -0.3416 0.3416
vn -0.54071 -0.02254 0.25908
vn 0.6 0 -0
vn 0.34641 -0.34641 -0.34641
vn 0.41587 0 -0.4325
vn 0.6 0 -0.00047
vn 0.59798 -0.04919 -0.00174
vn 0.22865 -0.44832 -0.32669
vn 0.06108 -0.59688 -0
vn -0.28509 -0 0.52794
vn -0.09917 -0.58338 0.09917
vn -0.077 -0.45297 0.38586
vn -0.06066 -0.52543 0.28326
vn -0.29102 -0.17232 -0.49559
vn -0.53666 0 0.26833
vn -0.42426 0 -0.42426
vn 0.31271 -0.51201 -0.00787
vn -0.30103 0.51902 0
vn -0.44851 0.39814 -0.01809
vn 0.3592 -0.3592 0.31929
vn 0.59964 0.02016 0.00504
vn 0.59964 0.02015 0.00504
vn 0.18215 0.54519 -0.17201
vn 0.4912 0.26602 -0.21899
vn 0.56317 0 -0.20698
vn -0.16935 -0.55842 0.13961
vn 0.43073 0.41703 0.02355
vn -0.13161 -0.58097 -0.07174
vn 0.26865 -0.23718 0.48122
vn -0.23284 -0.54388 -0.09991
vn -0.0852 -0.58445 0.10565
vn 0.03196 -0.52557 -0.28768
vn -0.49493 0.33751 -0.03365
vn -0.08977 -0.59173 0.04247
vn 0.44269 0 -0.405
vn -0.23393 0.52204 0.18096
vn -0.42426 -0 -0.42427
vn -0.00836 -0.5153 -0.30723
vn -0.48186 0 -0.35751
vn 0 -0 0.6
vn 0 0 0.6
vn -0.42426 -0 0.42427
vn 1E-05 -1E-05 -0.6
vn -0.5967 0.06283 -0
vn 0.03666 -0.59831 0.02612
vn -0.11416 -0.57787 0.11416
vn 0 -0.59752 0.05445
vn -0.46339 0 -0.38114
vn -0.08615 -0.59351 0.01786
vn -0.3617 -0.2961 -0.37616
vn -0.55665 -0.21371 -0.0668
vn -0.10764 0.56438 -0.1729
vn -0.25033 -0.50786 0.19852
vn -0.26254 0.43747 -0.31575
vn -0.21894 0.4982 -0.25271
vn 0.25615 0.51306 -0.17652
vn 0.32689 -0.16344 -0.47585
vn 0.31761 0.0508 -0.5065
vn -0.51439 -0.13814 0.27626
vn -0.59906 -0 0.03355
vn -0.5987 0.03846 0.00872
vn 0.03944 0.59035 0.09963
vn -0.0468 0.55152 0.23159
vn -0.184 -0.49633 -0.28248
vn -0.09461 -0.58121 -0.11507
vn -0.26315 -0.49824 -0.20617
vn -0.20114 0.48292 -0.29383
vn -0.1224 0.56506 -0.16039
vn -0.594 0 -0.08466
vn -0.07649 0.59098 0.06996
vn -0.08175 0.5857 0.10137
vn -0.37665 -0 0.46705
vn -0.29525 -0.47786 -0.21088
vn -0.34243 -0.49198 -0.02637
vn 0.48656 0.2708 -0.22345
vn 0.16749 -0.4409 -0.37089
vn 0.41587 0 -0.4325
vn 0.19905 0.54185 -0.16366
vn 0.2927 -0.50533 -0.13774
vn 0.26989 -0.52354 -0.1143
vn -0.09572 -0.26489 0.52978
vn -0.09572 -0.2649 0.52978
vn -0.59732 0 -0.05663
vn -0.53121 -0 0.27896
vn -0.25106 0 -0.54495
vn -0.37117 0 -0.47141
vn 0.4526 -0.22629 0.32241
vn 0.46664 1E-05 0.37715
vn 0.53666 -0.26832 -0
vn 0.53666 -0.26832 -0
vn 0 0 -0.6
vn -0 0 -0.6
vn 0 0 -0.6
vn -0 0 -0.6
vn -0 0 -0.6
vn -0 0 -0.6
vn -0 0 -0.6
vn 0 0 -0.6
vn -0.13787 -0 0.58395
vn -0.05849 -0.58142 -0.13612
vn -0.07229 -0.5758 -0.15242
vn 0.45278 -0 -0.39369
vn 0.45278 0 -0.39369
f 1//1 2//1 3//1
f 1//2 4//2 2//2
f 5//3 6//3 7//3
f 8//4 9//4 10//4
f 11//5 12//5 13//5
f 14//6 4//6 1//6
f 12//7 11//7 15//7
f 15//8 11//8 1//8
f 7//9 6//9 4//9
f 4//10 16//10 2//10
f 1//11 11//11 14//11
f 8//12 10//12 2//12
f 17//13 2//13 10//13
f 8//14 2//14 16//14
f 9//15 8//15 18//15
f 19//16 20//16 21//16
f 22//17 20//17 6//17
f 6//18 23//18 22//18
f 6//19 20//19 19//19
f 24//20 25//20 5//20
f 5//21 7//21 24//21
f 7//22 4//22 26//22
f 25//23 27//23 28//23
f 29//24 30//24 22//24
f 22//25 30//25 20//25
f 31//26 2//26 17//26
f 2//27 31//27 3//27
f 32//28 1//28 3//28
f 33//29 34//29 35//29
f 36//30 23//30 6//30
f 6//30 5//30 36//30
f 23//31 29//31 22//31
f 29//32 23//32 36//32
f 37//33 8//33 16//33
f 38//34 39//34 40//34
f 16//35 38//35 37//35
f 41//36 4//36 6//36
f 6//37 42//37 41//37
f 43//18 42//18 6//18
f 41//38 16//38 4//38
f 43//39 41//39 42//39
f 44//35 38//35 16//35
f 44//40 45//40 46//40
f 29//41 36//41 5//41
f 5//42 30//42 29//42
f 47//43 30//43 5//43
f 5//44 48//44 47//44
f 34//45 49//45 50//45
f 50//46 47//46 48//46
f 47//47 50//47 51//47
f 34//48 48//48 28//48
f 3//49 31//49 52//49
f 53//50 52//50 31//50
f 24//51 7//51 26//51
f 54//52 55//52 56//52
f 57//53 46//53 58//53
f 44//54 39//54 38//54
f 44//55 57//55 39//55
f 57//56 44//56 46//56
f 32//57 3//57 52//57
f 1//58 32//58 59//58
f 59//58 15//58 1//58
f 60//59 19//59 21//59
f 6//60 60//60 43//60
f 60//61 6//61 19//61
f 45//62 41//62 43//62
f 61//63 62//63 63//63
f 63//64 64//64 61//64
f 62//65 28//65 27//65
f 27//65 63//65 62//65
f 48//66 5//66 25//66
f 25//67 28//67 48//67
f 65//68 66//68 67//68
f 65//69 18//69 66//69
f 34//70 61//70 35//70
f 62//71 34//71 28//71
f 34//72 62//72 61//72
f 58//73 45//73 68//73
f 68//73 69//73 58//73
f 45//74 58//74 46//74
f 43//62 68//62 45//62
f 70//75 68//75 43//75
f 71//76 68//76 70//76
f 68//77 72//77 69//77
f 71//78 72//78 68//78
f 56//79 67//79 66//79
f 56//80 66//80 73//80
f 48//81 34//81 50//81
f 74//82 34//82 33//82
f 34//83 74//83 75//83
f 10//84 14//84 76//84
f 8//85 73//85 66//85
f 66//86 18//86 8//86
f 76//87 14//87 11//87
f 11//88 13//88 76//88
f 40//89 39//89 8//89
f 77//90 8//90 39//90
f 71//91 55//91 54//91
f 73//92 54//92 56//92
f 78//93 54//93 73//93
f 72//94 78//94 77//94
f 69//95 72//95 77//95
f 77//96 39//96 69//96
f 57//97 58//97 69//97
f 69//97 39//97 57//97
f 78//98 71//98 54//98
f 71//99 78//99 72//99
f 51//100 30//100 47//100
f 79//101 30//101 51//101
f 30//102 80//102 20//102
f 80//103 30//103 79//103
f 49//104 75//104 81//104
f 75//105 49//105 34//105
f 9//106 18//106 14//106
f 14//107 10//107 9//107
f 45//108 44//108 16//108
f 16//108 41//108 45//108
f 76//109 13//109 31//109
f 31//110 10//110 76//110
f 10//111 31//111 17//111
f 8//112 37//112 38//112
f 38//113 40//113 8//113
f 78//114 73//114 8//114
f 8//114 77//114 78//114
f 82//115 35//115 61//115
f 61//116 64//116 82//116
f 74//117 33//117 35//117
f 35//118 82//118 74//118
f 51//119 50//119 49//119
f 49//120 79//120 51//120
f 60//121 49//121 81//121
f 81//122 43//122 60//122
f 20//123 80//123 79//123
f 79//124 21//124 20//124
f 21//125 79//125 49//125
f 49//126 60//126 21//126
f 31//127 13//127 12//127
f 12//127 53//127 31//127
f 59//128 53//128 12//128
f 12//128 15//128 59//128
f 32//129 52//129 83//129
f 83//129 59//129 32//129
f 83//130 84//130 59//130
f 59//131 84//131 53//131
f 52//132 53//132 84//132
f 84//133 83//133 52//133
f 85//134 86//134 87//134
f 86//135 4//135 87//135
f 88//136 89//136 90//136
f 91//137 92//137 93//137
f 94//138 95//138 96//138
f 87//139 4//139 14//139
f 97//140 96//140 95//140
f 87//141 96//141 97//141
f 4//142 89//142 88//142
f 86//143 98//143 4//143
f 14//144 96//144 87//144
f 86//145 91//145 93//145
f 91//146 86//146 99//146
f 98//147 86//147 93//147
f 18//148 93//148 92//148
f 100//149 101//149 102//149
f 89//150 101//150 103//150
f 103//151 104//151 89//151
f 102//152 101//152 89//152
f 90//153 25//153 24//153
f 24//154 88//154 90//154
f 26//155 4//155 88//155
f 105//156 27//156 25//156
f 103//157 106//157 107//157
f 101//158 106//158 103//158
f 99//159 86//159 108//159
f 85//160 108//160 86//160
f 85//161 87//161 109//161
f 110//162 111//162 112//162
f 89//163 104//163 113//163
f 113//163 90//163 89//163
f 103//164 107//164 104//164
f 113//165 104//165 107//165
f 98//166 93//166 114//166
f 115//167 116//167 117//167
f 114//35 117//35 98//35
f 89//168 4//168 118//168
f 118//37 119//37 89//37
f 89//169 119//169 43//169
f 4//170 98//170 118//170
f 119//171 118//171 43//171
f 98//35 117//35 120//35
f 121//172 122//172 120//172
f 90//41 113//41 107//41
f 107//173 106//173 90//173
f 90//174 106//174 123//174
f 123//175 124//175 90//175
f 125//176 126//176 111//176
f 124//177 123//177 125//177
f 127//178 125//178 123//178
f 105//179 124//179 111//179
f 128//180 108//180 85//180
f 108//181 128//181 129//181
f 26//182 88//182 24//182
f 56//183 55//183 130//183
f 131//184 121//184 132//184
f 117//185 116//185 120//185
f 116//55 132//55 120//55
f 121//186 120//186 132//186
f 128//187 85//187 109//187
f 133//188 109//188 87//188
f 87//188 97//188 133//188
f 100//189 102//189 134//189
f 43//190 134//190 89//190
f 102//191 89//191 134//191
f 43//192 118//192 122//192
f 63//193 135//193 136//193
f 136//194 64//194 63//194
f 27//195 105//195 135//195
f 135//195 63//195 27//195
f 25//41 90//41 124//41
f 124//41 105//41 25//41
f 67//196 137//196 65//196
f 137//197 18//197 65//197
f 110//198 136//198 111//198
f 105//199 111//199 135//199
f 136//200 135//200 111//200
f 138//201 122//201 131//201
f 131//201 139//201 138//201
f 121//202 131//202 122//202
f 122//192 138//192 43//192
f 43//203 138//203 70//203
f 70//204 138//204 71//204
f 139//205 140//205 138//205
f 138//206 140//206 71//206
f 137//207 67//207 56//207
f 141//208 137//208 56//208
f 125//209 111//209 124//209
f 112//210 111//210 74//210
f 75//211 74//211 111//211
f 142//212 14//212 91//212
f 137//213 141//213 93//213
f 93//214 18//214 137//214
f 96//215 14//215 142//215
f 142//216 94//216 96//216
f 93//217 116//217 115//217
f 116//218 93//218 143//218
f 130//219 55//219 71//219
f 56//220 130//220 141//220
f 141//221 130//221 144//221
f 143//222 144//222 140//222
f 143//223 140//223 139//223
f 139//224 116//224 143//224
f 139//225 131//225 132//225
f 132//225 116//225 139//225
f 130//226 71//226 144//226
f 140//227 144//227 71//227
f 123//228 106//228 127//228
f 127//229 106//229 145//229
f 101//230 146//230 106//230
f 145//231 106//231 146//231
f 81//232 75//232 126//232
f 111//233 126//233 75//233
f 14//234 18//234 92//234
f 92//235 91//235 14//235
f 98//236 120//236 122//236
f 122//236 118//236 98//236
f 108//109 94//109 142//109
f 142//237 91//237 108//237
f 99//111 108//111 91//111
f 117//112 114//112 93//112
f 93//238 115//238 117//238
f 93//239 141//239 144//239
f 144//239 143//239 93//239
f 136//240 110//240 82//240
f 82//241 64//241 136//241
f 110//242 112//242 74//242
f 74//243 82//243 110//243
f 126//244 125//244 127//244
f 127//245 145//245 126//245
f 81//246 126//246 134//246
f 134//247 43//247 81//247
f 145//248 146//248 101//248
f 101//249 100//249 145//249
f 126//250 145//250 100//250
f 100//251 134//251 126//251
f 95//127 94//127 108//127
f 108//127 129//127 95//127
f 95//128 129//128 133//128
f 133//128 97//128 95//128
f 147//252 128//252 109//252
f 109//252 133//252 147//252
f 133//253 148//253 147//253
f 129//254 148//254 133//254
f 148//255 129//255 128//255
f 128//256 147//256 148//256
# Vertices: 148, normals: 256, texture coordinates: 0, faces: 292

