o obj1
v 29.22699165 18.70715141 44.53949356
v 46.1599884 16.62591553 49.96153641
v 36.51894379 26.3574028 43.72159195
v 46.7509079 -33.68329239 10.30902958
v 55.25984192 -29.12069702 14.60501099
v 55.13576508 -33.81897736 21.7115097
v 31.11716461 26.49944305 112.43421173
v 23.36201286 20.39640236 106.93875885
v 29.54286957 11.76572323 111.69308472
v 13.97730064 -17.52171898 65.43387604
v 12.46042061 -27.63136101 52.31146622
v 27.16110802 -20.21050835 64.58981323
v 21.05088043 14.7440424 31.48510551
v 5.59186172 20.20020103 48.56942749
v 56.67658234 18.93350029 42.75403214
v 63.93592834 15.73615456 34.69513321
v -19.5120163 -24.39798164 57.55654144
v -22.72193527 -26.36110878 64.22136688
v -22.55702209 -7.86387682 60.11608505
v 63.09252167 13.91029835 22.0430069
v 74.10368347 -2.43334007 25.02628326
v 65.3927002 1.68511331 12.97910213
v 8.38037968 43.98431015 107.66382599
v 18.30934715 45.19732666 97.11421204
v 6.27607679 42.75445175 90.71604156
v 56.43938828 12.5683136 14.20601368
v 49.96049881 21.49425888 29.36673737
v 7.37312126 -20.27310562 19.88604927
v 10.06119537 -10.79148197 10.21739006
v 7.33784533 -24.84254456 15.42577457
v 38.37430191 19.97419739 16.78899765
v 28.5650177 26.42728806 32.56725693
v -1.8148607 -7.4848671 11.85942078
v -0.45687121 -12.8817873 5.25388288
v 10.39310741 6.12478733 14.84242916
v 31.86298943 17.09134865 15.0762701
v 13.46739578 17.50256729 8.85838127
v 4.80457163 10.32766724 78.93103027
v 9.65761471 7.29352474 79.93582153
v 11.32273197 10.69537163 68.51003265
v 82.99677277 -9.75806808 31.68515968
v 82.01182556 -22.44884682 25.6991024
v 84.23294067 -10.80918884 23.27418137
v 16.21977234 41.00417709 112.51364136
v 3.33071613 19.61721611 82.53744507
v 4.80430508 14.35305405 89.1711731
v -23.88985443 -7.02867889 67.72207642
v -17.016325 6.63105202 62.73796463
v 10.39754581 -3.8880868 89.70954132
v 22.61688042 2.4589467 96.78727722
v 7.05195332 -3.02997994 92.85295868
v 19.87436485 -37.05016327 7.22531939
v 31.45262718 -34.74391937 15.38946915
v 17.84795189 -29.94757271 17.25342369
v 28.90240288 20.60258675 94.55020905
v 36.36320877 19.84984589 93.3807373
v 59.22303772 11.88684845 63.99115753
v 68.24211884 9.49475193 51.54703522
v 57.81429291 13.20491219 53.83342361
v 77.1601181 -20.2483902 40.03556061
v 64.27755737 -29.07714462 17.08965492
v 75.23549652 -20.46164322 30.35824203
v 38.19570923 23.46821213 110.77934265
v 35.36323166 30.64352036 105.7688446
v 55.15216064 -35.40131378 50.34921265
v 71.84775543 -25.79500008 51.51260757
v 62.42802811 -28.38229179 60.18896866
v 76.14128876 -2.21626663 55.11595535
v 77.44384003 -9.29251862 31.78638649
v -20.5116806 -9.21454811 46.44171906
v -15.6196537 -19.23495293 41.25363541
v -15.2950592 -17.33992577 55.17271805
v 48.7519989 -10.75025368 75.24890137
v 63.76954269 -6.07431173 69.47257233
v 50.79566956 1.5084976 72.23269653
v -16.08183479 1.18278909 36.27231216
v -7.13561249 -15.08703709 23.83534813
v -10.10804558 -20.98357964 31.1319561
v 13.18477058 0.51076305 81.56567383
v 16.88176727 -3.67467928 71.50720978
v -7.09630823 11.37934875 82.82804108
v 4.59820271 36.35845566 84.12895966
v -17.36277962 -2.17747378 54.55584335
v -5.46255922 11.13649368 58.63687134
v -8.19248962 14.45539284 44.9015007
v -2.56485057 12.45848274 77.94854736
v 1.88036776 37.0663681 110.21144104
v -2.58205104 3.29196358 90.29957581
v 9.6796999 4.99755096 100.12470245
v -4.2053709 -8.04032707 93.74036407
v 6.38619471 8.42577553 90.64358521
v -21.5936985 -5.90878439 86.37941742
v -14.11741066 -16.90699196 88.40599823
v -20.01825714 -24.49141312 77.26279449
v -19.34169197 -1.29073989 78.16192627
v 74.17745972 6.97171211 41.44295502
v 3.6304152 -19.40182686 88.53870392
v -6.7720952 -27.36722183 83.07039642
v -7.55354214 1.50640571 24.98490906
v 16.29630852 -30.71138 28.90166664
v 8.90513325 5.37680292 5.27490664
v 54.83198547 12.99079323 5.35187101
v 54.92335129 -0.26499337 5.37623501
v 22.39579964 18.55037308 5.31186628
v 47.88055801 -23.29201889 72.0379715
v 42.55121994 -31.091362 64.35157776
v -6.45278692 -22.76462936 5.37584448
v -4.46216583 33.05618286 103.48020935
v 32.65083694 16.57406425 59.5619278
v 6.23925781 4.27880478 21.56959152
v -4.71177959 -24.59897804 55.3130188
v -1.69332874 -30.41491318 44.65390396
v 74.37795258 -16.98300934 5.28086519
v 67.26598358 -25.76189041 5.33583117
v -5.43409252 1.44832194 7.63063431
v 67.75669098 -19.78534508 64.53250122
v 42.71334839 -41.42763138 30.4593792
v 62.88567734 -34.11768723 37.38273239
v 49.20783234 -39.9662323 41.97236633
v 27.72405434 -39.77682114 41.86899567
v 31.18092537 -41.30659103 27.11434364
v 39.49838638 -40.30412292 46.21828842
v 29.23694992 1.37228036 68.70236969
v -9.31655121 8.58915329 87.90459442
v 1.37167084 -29.63838196 8.03566933
v -4.24593163 23.64100456 94.46986389
v -14.48315048 -32.90485764 70.88102722
v 19.48527145 38.63006973 93.62115479
v 17.3737812 15.59567547 62.43463516
v 43.60511398 11.60811329 63.72717667
v 21.24066544 36.32899475 104.22668457
v 5.31533337 -16.99988174 80.26005554
v -5.81819773 -33.93497086 62.80383682
v 1.50082624 -25.91761017 65.00450134
v 70.47155762 -5.59137058 5.29483366
v 23.54933739 -31.61586571 47.89533234
v -1.42583394 -28.69783211 35.92781067
v 41.23324585 26.83197403 32.63880539
v 79.97744751 -3.08799314 21.75872993
v 30.0410614 30.60115051 103.61256409
v 46.47014999 -32.18011856 5.31205368
v 2.11345339 16.71648407 32.44476318
v 12.69772148 -28.18157005 5.31037855
v 6.41978121 -6.82797003 13.85188675
v 3.26982117 34.31559372 94.082901
v 10.60813046 28.95355415 101.51660919
v -2.15479732 20.62360764 100.3363266
v 35.53003693 14.81942272 95.2454071
vn -0.24971 0.33514 0.90848
vn 0.58663 -0.68024 -0.43948
vn -0.5897 0.0224 0.80731
vn -0.11968 -0.77974 0.61456
vn 0.00984 0.9551 -0.29612
vn 0.3422 0.93747 -0.06368
vn -0.88609 -0.09289 -0.45412
vn 0.7881 0.45536 -0.41418
vn -0.17317 0.98363 -0.04988
vn 0.28597 0.87418 -0.39247
vn -0.98085 0.13987 -0.13553
vn 0.17641 0.94463 -0.27667
vn -0.13296 -0.78074 0.61055
vn -0.26642 0.50407 0.82154
vn 0.4556 0.83283 0.31436
vn 0.97493 -0.15222 0.16231
vn 0.18393 0.9418 0.2814
vn 0.98036 0.18354 -0.07212
vn -0.9026 0.3812 -0.20002
vn 0.19521 -0.87339 0.44619
vn -0.21469 -0.81696 0.53524
vn -0.02623 0.75605 -0.65398
vn 0.34847 0.93448 0.07293
vn 0.70181 -0.70147 -0.12412
vn 0.95111 0.26676 -0.15565
vn 0.43107 -0.41209 0.80272
vn 0.46853 -0.84537 0.25658
vn 0.99857 0.01312 0.05177
vn -0.87739 -0.47223 0.08475
vn 0.30397 0.17953 0.93561
vn -0.87742 -0.12934 -0.46196
vn 0.70161 0.59344 0.39443
vn 0.86883 0.4805 0.1194
vn -0.886 0.42451 -0.18652
vn -0.46558 0.61207 -0.63922
vn -0.4331 0.8527 0.29212
vn 0.23018 0.38371 -0.89431
vn -0.27762 0.55073 0.78716
vn -0.50598 -0.48221 0.71517
vn -0.05731 0.29756 0.95298
vn -0.15162 0.2 0.96799
vn -0.39844 -0.10291 0.9114
vn -0.91902 0.01153 0.39404
vn 0.9797 0.20036 -0.00607
vn -0.07605 -0.49493 0.8656
vn 0.58766 0.55032 -0.59313
vn -0.61297 0.65328 -0.4444
vn -0.25731 0.84149 0.47506
vn -0.69051 -0.70994 -0.13853
vn -0.94032 0.31792 0.12139
vn 0.00092 -0.00183 -1
vn -0.91666 0.39956 0.00921
vn 0.38958 0.35763 0.84872
vn -0.42257 -0.62939 0.65215
vn -0.35814 -0.20814 0.91017
vn 0.96753 0.23525 -0.09245
vn 0.231 -0.75844 0.60943
vn 0.00077 -0.00209 -1
vn -0.67243 0.70948 0.21092
vn 0.08263 0.98913 0.12162
vn -0.47739 0.85748 -0.1919
vn -0.64278 -0.7342 0.21858
vn -0.4331 0.87291 -0.22462
vn 0.70491 -0.57368 -0.41712
vn 0.65345 0.36739 0.66184
vn 0.38351 0.83584 0.39279
vn -0.1872 0.09711 -0.97751
vn -0.0411 0.98159 0.18653
vn 0.98395 0.00645 -0.17832
vn -0.35631 -0.52096 0.77566
vn 0.75927 -0.01363 0.65063
vn 0.3662 -0.92627 -0.089
vn -0.07596 -0.99346 0.08521
vn -0.62272 0.64145 0.44806
vn -0.86776 0.49606 0.03037
vn -0.24099 0.83659 -0.49198
vn -0.15762 0.26063 0.95248
vn -0.89344 -0.10406 0.43697
vn -0.74618 0.51858 -0.41749
vn 0.42131 0.62513 0.65705
vn -0.37907 0.39054 -0.83892
vn -0.76252 0.63043 0.14532
vn -0.58096 -0.38352 0.71791
vn -0.90442 0.38493 -0.18399
vn -0.97931 0.05213 0.19555
vn -0.03246 -0.78994 0.61233
vn -0.23338 -0.60975 0.75746
vn -0.40712 -0.70673 0.57861
vn 0.29023 0.70351 0.64872
vn 0.24934 0.9497 0.18947
vn -0.93681 -0.33943 0.08473
vn 0.78615 -0.38709 -0.4818
vn -0.2197 0.85461 0.4705
vn -0.45485 0.28637 0.84327
vn -0.13519 0.58017 0.8032
vn 0.84923 -0.46913 -0.24235
vn 0.68593 -0.68979 0.23171
vn 0.81232 -0.36861 0.45195
vn -0.72827 0.68293 0.05684
vn 0.69594 -0.57742 0.42691
vn 0.08928 -0.93557 -0.34167
vn -0.83725 0.38947 -0.38383
vn 0.74938 0.59438 0.29178
vn -0.00062 -0.00193 -1
vn 0.26475 0.78146 -0.56501
vn 0.69879 -0.71498 -0.02209
vn -0.07555 -0.88416 0.46103
vn 0.0832 0.9891 0.12148
vn -0.47051 -0.67787 0.5649
vn -0.31243 -0.75968 -0.57033
vn -0.44281 0.87765 -0.18343
vn -0.03208 0.99906 0.02913
vn 0.24093 0.66491 -0.707
vn 0.84535 0.47519 0.2441
vn -0.25283 0.11301 0.96089
vn 0.34231 0.82477 0.45009
vn -0.75951 0.48112 0.4378
vn 0.13205 -0.85053 0.50907
vn -0.71593 -0.65479 0.2423
vn 0.36954 -0.90743 -0.20005
vn 0.51897 -0.78813 0.33094
vn 0.20765 -0.88578 0.41507
vn -0.04761 0.67378 -0.7374
vn -0.08264 0.5271 0.84577
vn -0.47727 -0.6668 0.57236
vn 0.11666 -0.08299 -0.9897
vn -0.74062 0.63652 0.21526
vn -0.59943 -0.78169 -0.17219
vn 0.95689 -0.16917 0.23612
vn 0.00733 -0.12825 0.99171
vn 0.86832 0.49156 0.06619
vn -0.76541 -0.58674 0.26434
vn 0.23155 0.46258 0.85581
vn -0.00035 0.00483 -0.99999
vn 0.03127 0.66377 -0.74728
vn -0.31112 -0.94751 0.07368
vn -0.26918 0.96251 -0.03338
vn -0.11667 -0.96343 0.24123
vn -0.0114 0.50898 -0.8607
vn -0.52417 0.09105 0.84673
vn 0.19841 -0.07037 0.97759
vn -0.2592 0.96544 -0.0272
vn -0.43538 -0.82429 -0.36194
vn -0.18236 0.88288 0.43275
vn -0.58329 -0.81056 -0.05262
vn 0.66281 -0.70261 0.25889
vn -0.45904 0.7725 0.43878
vn 0.94158 0.29039 -0.17059
vn 0.19207 -0.87006 0.454
vn 0.0728 0.71784 0.69239
vn 0.18146 0.9833 0.01398
vn -0.44449 -0.8938 0.05951
vn 0.88266 -0.25119 -0.39725
vn -0.81446 -0.28466 -0.50559
vn -0.39 -0.13602 0.91071
vn -0.02744 -0.23214 -0.97229
vn -0.0027 0.00739 -0.99997
vn -0.96896 0.03773 -0.24434
vn -0.80084 0.48217 0.3552
vn -0.54156 0.76763 -0.34271
vn -0.33642 0.31739 0.88661
vn -0.06565 -0.81725 0.57253
vn 0.18778 0.94456 0.26934
vn 0.07426 -0.69086 0.71916
vn -0.02874 -0.95766 -0.28647
vn -0.42026 -0.63217 0.65096
vn -0.24678 0.33114 0.91074
vn 0.63567 -0.76634 -0.09297
vn 0.4268 0.89062 -0.15698
vn 0.07198 -0.99373 0.08553
vn -0.21226 -0.85633 0.4708
vn -0.01991 0.99113 0.13137
vn -0.65348 0.62486 -0.42722
vn 0.1815 -0.98318 0.02034
vn 0.91251 -0.40323 0.06873
vn -0.70802 0.47971 -0.51826
vn 0.00324 -0.00051 -0.99999
vn 0.615 -0.62446 0.48148
vn -0.18678 -0.96282 -0.19518
vn -0.84726 0.29375 -0.44256
vn 0.29468 -0.95493 0.03566
vn -0.45427 0.89013 -0.03624
vn 0.15362 -0.82551 -0.54308
vn 0.11781 0.24623 0.96202
vn 0.38058 -0.25408 0.88916
vn 0.212 -0.88904 0.4058
vn 0.54524 0.82187 0.16507
vn -0.87479 -0.19817 -0.44212
vn 0.51407 -0.7419 -0.43048
vn 0.40595 -0.203 0.89107
vn 0.07257 0.99423 -0.07895
vn 0.96768 -0.16719 -0.18877
vn -0.56236 -0.81748 0.12441
vn -0.35341 0.9272 -0.12408
vn 0.96663 0.23147 -0.10977
vn 0.11325 -0.98251 0.14782
vn 0.73082 0.59084 -0.34178
vn -0.72053 0.36794 -0.58776
vn -0.79798 0.02163 -0.6023
vn -0.86098 -0.11726 -0.49493
vn 0.34074 -0.71537 0.61003
vn 0.3146 -0.20714 0.92635
vn 0.58933 0.03212 -0.80725
vn 0.83305 0.53697 -0.13302
vn -0.92414 0.36888 0.09942
vn 0.89626 -0.22189 0.38404
vn -0.50519 0.38434 0.7727
vn 0.0471 0.42943 -0.90187
vn 0.37398 -0.59235 0.71362
vn 0.69862 -0.49631 -0.51537
vn -0.75584 0.58612 0.29185
vn -0.30359 0.56811 -0.76491
vn 0.24736 0.74033 -0.62508
vn 0.80398 -0.59465 -0.00229
vn -0.90941 0.13474 0.39347
vn 0.02006 0.98665 -0.16161
vn -0.40491 -0.62349 -0.66881
vn -0.77831 -0.57574 0.2505
vn 0.6523 -0.75647 -0.04752
vn 0.55366 -0.79709 -0.24106
vn -0.94793 -0.23129 0.21893
vn 0.4438 0.01549 -0.89599
vn -0.00649 -0.001 -0.99998
vn -0.02936 -0.99745 0.06512
vn -0.6611 -0.12029 -0.7406
vn -0.14275 -0.4943 -0.85749
vn -0.92662 0.36542 0.08854
vn 0.53285 0.04001 -0.84527
vn -0.10723 -0.72368 0.68176
vn 0.46184 0.46508 -0.75525
vn 0.79232 0.33684 -0.50869
vn -0.25137 0.06059 -0.96599
vn 0.70325 -0.69977 -0.12558
vn -0.57038 -0.40105 0.71682
vn 0.29596 -0.20619 0.93268
vn -0.35042 -0.81379 -0.46362
vn 0.08938 0.96938 -0.22871
vn 0.21897 0.86373 0.45389
vn -0.02438 0.63376 0.77315
vn 0.57484 0.76978 0.27748
vn -0.82928 0.42419 -0.36381
vn -0.42911 0.06272 0.90107
vn 0.4168 0.48391 -0.76949
vn -0.5853 -0.80025 -0.13044
vn -0.6993 -0.36176 0.61653
vn -0.3386 -0.84583 -0.41222
vn 0.19018 -0.91246 0.36229
vn 0.58625 0.79698 0.14537
vn -0.76685 0.52662 -0.3669
vn 0.39672 -0.89284 -0.21321
vn 0.63908 -0.70579 -0.30568
vn 0.81943 -0.52336 0.23372
vn -0.02237 -0.39763 0.91727
vn 0.68346 -0.68133 0.26206
vn 0.66228 0.71121 -0.23574
vn -0.94918 -0.28426 -0.13512
vn -0.24385 0.05513 -0.96824
vn 0.92163 -0.21699 0.32173
vn -0.59916 -0.29901 0.7427
vn 0.30422 -0.68269 0.66437
vn -0.14879 -0.23548 -0.96042
vn 0.30264 0.87224 -0.3842
vn -0.10184 -0.86706 -0.48768
vn -0.07061 -0.45509 0.88764
vn -0.34092 -0.74231 -0.57684
vn 0.47806 -0.85514 0.20047
vn -0.53284 0.03277 -0.84558
vn 0.4356 -0.88349 0.17234
vn 0.80032 0.2751 -0.53273
vn -0.37371 0.9269 -0.03454
vn 0.37024 0.92838 0.03217
vn -0.00131 0.9487 0.31617
vn 0.36722 -0.72098 0.58765
vn -0.12669 -0.6116 -0.78096
vn -0.99764 -0.04934 0.04767
vn 0.07934 0.73582 0.67252
vn 0.16893 0.98549 -0.01654
vn 0.51867 0.85224 0.06835
vn -0.86981 0.47974 0.11526
vn 0.55682 -0.78627 -0.26781
vn -0.58766 -0.78794 -0.18388
vn 0.17886 -0.93345 0.31092
vn 0.24282 -0.49061 0.83686
vn 0.00255 0.02108 -0.99977
vn 0.11186 0.88735 0.44732
vn 0.35582 -0.89401 -0.27229
vn 0.28187 -0.54387 0.79041
vn -0.72131 0.59023 0.36242
vn 0.07441 -0.96456 -0.25314
vn 0.88551 0.39394 0.24634
vn 0.64336 -0.3575 -0.67697
vn 0.98037 -0.18629 -0.06452
f 1//1 2//1 3//1
f 4//2 5//2 6//2
f 7//3 8//3 9//3
f 10//4 11//4 12//4
f 1//5 13//5 14//5
f 15//6 16//6 3//6
f 17//7 18//7 19//7
f 20//8 21//8 22//8
f 23//9 24//9 25//9
f 26//10 27//10 20//10
f 28//11 29//11 30//11
f 27//12 31//12 32//12
f 33//13 34//13 29//13
f 35//14 36//14 37//14
f 38//15 39//15 40//15
f 41//16 42//16 43//16
f 44//17 24//17 23//17
f 38//18 45//18 46//18
f 47//19 48//19 19//19
f 49//20 50//20 51//20
f 52//21 53//21 54//21
f 55//22 56//22 39//22
f 57//23 58//23 59//23
f 60//24 61//24 62//24
f 63//25 56//25 64//25
f 62//26 42//26 41//26
f 65//27 66//27 67//27
f 68//28 60//28 69//28
f 70//29 71//29 72//29
f 73//30 74//30 75//30
f 76//31 77//31 78//31
f 57//32 68//32 58//32
f 79//33 80//33 39//33
f 81//34 25//34 82//34
f 83//35 48//35 84//35
f 14//36 85//36 84//36
f 45//37 38//37 86//37
f 87//38 44//38 23//38
f 88//39 51//39 89//39
f 90//40 51//40 88//40
f 46//41 88//41 91//41
f 92//42 93//42 90//42
f 47//43 94//43 95//43
f 68//44 69//44 96//44
f 97//45 93//45 98//45
f 20//46 22//46 26//46
f 76//47 85//47 99//47
f 40//48 14//48 84//48
f 100//49 28//49 54//49
f 101//50 35//50 37//50
f 102//51 103//51 104//51
f 83//52 76//52 70//52
f 75//53 74//53 57//53
f 98//54 93//54 94//54
f 105//55 73//55 12//55
f 91//56 38//56 46//56
f 106//57 67//57 105//57
f 104//58 103//58 107//58
f 23//59 108//59 87//59
f 109//60 2//60 1//60
f 13//61 36//61 110//61
f 111//62 71//62 112//62
f 91//63 55//63 39//63
f 113//64 42//64 114//64
f 68//65 57//65 74//65
f 59//66 58//66 15//66
f 115//67 101//67 34//67
f 104//68 37//68 36//68
f 102//69 26//69 103//69
f 106//70 105//70 12//70
f 68//71 74//71 116//71
f 117//72 118//72 119//72
f 120//73 121//73 122//73
f 3//74 32//74 1//74
f 83//75 85//75 76//75
f 36//76 32//76 31//76
f 123//77 73//77 75//77
f 70//78 72//78 83//78
f 32//79 36//79 13//79
f 7//80 63//80 64//80
f 37//81 104//81 101//81
f 124//82 95//82 92//82
f 125//83 30//83 107//83
f 126//84 81//84 124//84
f 18//85 94//85 19//85
f 111//86 11//86 10//86
f 51//87 9//87 89//87
f 94//88 127//88 98//88
f 15//89 3//89 2//89
f 86//90 38//90 40//90
f 34//91 33//91 115//91
f 46//92 45//92 128//92
f 40//93 129//93 14//93
f 107//94 29//94 34//94
f 130//95 123//95 75//95
f 128//96 131//96 46//96
f 132//97 133//97 134//97
f 79//98 10//98 80//98
f 124//99 81//99 95//99
f 132//100 10//100 49//100
f 121//101 4//101 117//101
f 48//102 83//102 19//102
f 68//103 96//103 58//103
f 114//104 107//104 135//104
f 103//105 22//105 135//105
f 66//106 118//106 60//106
f 11//107 111//107 112//107
f 14//108 109//108 1//108
f 12//109 136//109 106//109
f 137//110 28//110 100//110
f 8//111 55//111 91//111
f 138//112 32//112 3//112
f 24//113 82//113 25//113
f 44//114 131//114 24//114
f 124//115 92//115 88//115
f 41//116 139//116 21//116
f 89//117 8//117 91//117
f 65//118 67//118 122//118
f 94//119 18//119 127//119
f 6//120 61//120 118//120
f 132//121 134//121 10//121
f 67//122 106//122 122//122
f 56//123 55//123 140//123
f 109//124 123//124 130//124
f 106//125 136//125 120//125
f 34//126 104//126 107//126
f 81//127 48//127 95//127
f 137//128 112//128 78//128
f 49//129 10//129 79//129
f 62//130 41//130 69//130
f 41//131 43//131 139//131
f 136//132 100//132 120//132
f 123//133 109//133 40//133
f 141//134 107//134 114//134
f 142//135 13//135 110//135
f 100//136 136//136 11//136
f 101//137 115//137 35//137
f 114//138 42//138 62//138
f 138//139 27//139 32//139
f 8//140 89//140 9//140
f 63//141 7//141 9//141
f 86//142 84//142 81//142
f 17//143 133//143 127//143
f 7//144 64//144 140//144
f 121//145 120//145 100//145
f 132//146 98//146 133//146
f 89//147 91//147 88//147
f 96//148 69//148 21//148
f 50//149 9//149 51//149
f 21//150 69//150 41//150
f 26//151 102//151 36//151
f 143//152 54//152 30//152
f 42//153 113//153 43//153
f 28//154 144//154 29//154
f 73//155 123//155 12//155
f 52//156 143//156 141//156
f 103//157 135//157 107//157
f 92//158 95//158 94//158
f 1//159 32//159 13//159
f 108//160 23//160 145//160
f 92//161 90//161 88//161
f 11//162 136//162 12//162
f 109//163 59//163 2//163
f 146//164 44//164 87//164
f 141//165 4//165 53//165
f 54//166 28//166 30//166
f 115//167 33//167 144//167
f 98//168 132//168 97//168
f 16//169 20//169 27//169
f 122//170 117//170 119//170
f 106//171 120//171 122//171
f 57//172 59//172 130//172
f 142//173 99//173 85//173
f 52//174 141//174 53//174
f 132//175 49//175 97//175
f 108//176 145//176 126//176
f 101//177 104//177 34//177
f 116//178 67//178 66//178
f 137//179 100//179 112//179
f 110//180 35//180 144//180
f 5//181 141//181 114//181
f 35//182 110//182 36//182
f 6//183 5//183 61//183
f 40//184 80//184 123//184
f 116//185 73//185 105//185
f 30//186 125//186 143//186
f 16//187 15//187 58//187
f 70//188 78//188 71//188
f 111//189 10//189 134//189
f 73//190 116//190 74//190
f 86//191 40//191 84//191
f 60//192 62//192 69//192
f 72//193 71//193 111//193
f 14//194 142//194 85//194
f 131//195 128//195 24//195
f 100//196 11//196 112//196
f 21//197 16//197 96//197
f 82//198 86//198 81//198
f 76//199 99//199 77//199
f 70//200 76//200 78//200
f 146//201 131//201 44//201
f 49//202 90//202 97//202
f 45//203 86//203 82//203
f 21//204 20//204 16//204
f 145//205 25//205 81//205
f 116//206 66//206 68//206
f 29//207 107//207 30//207
f 31//208 26//208 36//208
f 67//209 116//209 105//209
f 111//210 134//210 133//210
f 84//211 85//211 83//211
f 99//212 142//212 110//212
f 140//213 64//213 56//213
f 50//214 63//214 9//214
f 147//215 126//215 124//215
f 139//216 135//216 21//216
f 78//217 77//217 28//217
f 54//218 143//218 52//218
f 114//219 62//219 61//219
f 49//220 79//220 50//220
f 108//221 126//221 147//221
f 56//222 79//222 39//222
f 113//223 114//223 135//223
f 122//224 121//224 117//224
f 72//225 19//225 83//225
f 125//226 107//226 143//226
f 23//227 25//227 145//227
f 82//228 128//228 45//228
f 29//229 144//229 33//229
f 26//230 22//230 103//230
f 139//231 43//231 135//231
f 99//232 110//232 77//232
f 60//233 118//233 61//233
f 147//234 124//234 88//234
f 123//235 80//235 12//235
f 54//236 53//236 121//236
f 142//237 14//237 13//237
f 130//238 59//238 109//238
f 75//239 57//239 130//239
f 3//240 27//240 138//240
f 55//241 8//241 140//241
f 115//242 144//242 35//242
f 128//243 82//243 24//243
f 121//244 100//244 54//244
f 92//245 94//245 93//245
f 18//246 17//246 127//246
f 65//247 122//247 119//247
f 16//248 58//248 96//248
f 145//249 81//249 126//249
f 118//250 117//250 6//250
f 50//251 79//251 148//251
f 88//252 46//252 146//252
f 80//253 10//253 12//253
f 148//254 63//254 50//254
f 21//255 135//255 22//255
f 94//256 47//256 19//256
f 110//257 28//257 77//257
f 66//258 60//258 68//258
f 147//259 87//259 108//259
f 46//260 131//260 146//260
f 111//261 17//261 72//261
f 27//262 26//262 31//262
f 121//263 53//263 4//263
f 90//264 93//264 97//264
f 78//265 28//265 137//265
f 65//266 118//266 66//266
f 17//267 19//267 72//267
f 65//268 119//268 118//268
f 43//269 113//269 135//269
f 81//270 84//270 48//270
f 16//271 27//271 3//271
f 109//272 14//272 129//272
f 51//273 90//273 49//273
f 111//274 133//274 17//274
f 144//275 28//275 110//275
f 129//276 40//276 109//276
f 36//277 102//277 104//277
f 91//278 39//278 38//278
f 95//279 48//279 47//279
f 4//280 141//280 5//280
f 71//281 78//281 112//281
f 133//282 98//282 127//282
f 147//283 88//283 146//283
f 143//284 107//284 141//284
f 59//285 15//285 2//285
f 4//286 6//286 117//286
f 147//287 146//287 87//287
f 140//288 8//288 7//288
f 5//289 114//289 61//289
f 39//290 80//290 40//290
f 148//291 79//291 56//291
f 63//292 148//292 56//292
# Vertices: 148, normals: 292, texture coordinates: 0, faces: 292

