# File generated by ImageToStl.com - Free Image and 3D model conversion tools

o obj1
v 5 -10 5.40192413
v -5 -10 5.40192413
v 5 -12 5.40192413
v -5 -12 5.40192413
v 1.5 -12 -2.59807611
v 5 -12 -2.59807611
v 3 -12 0
v 1.5 -12 2.59807611
v -1.5 -12 2.59807611
v -3 -12 0
v -5 -12 -2.59807611
v -1.5 -12 -2.59807611
v -5 -10 -2.59807611
v 5 -10 -2.59807611
v 3 -23 0
v 1.5 -23 2.59807611
v 1.5 -10 2.59807611
v 3 -10 0
v 1.5 0 2.59807611
v 3 0 0
v -1.5 -23 2.59807611
v -1.5 -10 2.59807611
v -1 -10 2.59807611
v -1.5 0 2.59807611
v -1 0 2.59807611
v 1.5 -23 -2.59807611
v 1.5 -10 -2.59807611
v 1.5 0 -2.59807611
v -3 -23 0
v -1.5 -23 -2.59807611
v 1 0 -2.59807611
v 1 -10 -2.59807611
v -1 -10 -2.59807611
v -1.5 -10 -2.59807611
v -1 0 -2.59807611
v -1.5 0 -2.59807611
v 1 -10 2.59807611
v 1 0 2.59807611
v -3 -10 0
v -3 0 0
vn -0 -0 1
vn -0 -1 -0
vn -1 0 -0
vn 1 0 -0
vn 0.86603 -0 0.5
vn 0.86603 -0 -0.5
vn -0.86603 -0 0.5
vn -0.86603 0 -0.5
vn -0 -0 -1
vn -0 1 -0
f 1//1 2//1 3//1
f 3//1 2//1 4//1
f 5//2 6//2 7//2
f 7//2 6//2 3//2
f 8//2 3//2 4//2
f 9//2 4//2 10//2
f 9//2 8//2 4//2
f 4//2 11//2 10//2
f 10//2 11//2 12//2
f 8//2 7//2 3//2
f 2//3 13//3 4//3
f 4//3 13//3 11//3
f 3//4 6//4 1//4
f 1//4 6//4 14//4
f 7//5 8//5 15//5
f 15//5 8//5 16//5
f 17//5 18//5 19//5
f 19//5 18//5 20//5
f 8//1 9//1 16//1
f 16//1 9//1 21//1
f 22//1 23//1 24//1
f 24//1 23//1 25//1
f 5//6 7//6 26//6
f 26//6 7//6 15//6
f 18//6 27//6 20//6
f 20//6 27//6 28//6
f 9//7 10//7 21//7
f 21//7 10//7 29//7
f 10//8 12//8 29//8
f 29//8 12//8 30//8
f 31//9 28//9 32//9
f 32//9 28//9 27//9
f 5//9 27//9 14//9
f 6//9 5//9 14//9
f 26//9 30//9 5//9
f 5//9 30//9 12//9
f 32//9 12//9 33//9
f 32//9 5//9 12//9
f 32//9 27//9 5//9
f 33//9 12//9 34//9
f 35//9 34//9 36//9
f 35//9 33//9 34//9
f 13//9 34//9 11//9
f 11//9 34//9 12//9
f 32//3 37//3 31//3
f 31//3 37//3 38//3
f 33//10 23//10 32//10
f 32//10 23//10 37//10
f 37//10 23//10 2//10
f 1//10 37//10 2//10
f 1//10 17//10 37//10
f 1//10 18//10 17//10
f 1//10 14//10 18//10
f 18//10 14//10 27//10
f 23//10 22//10 2//10
f 2//10 22//10 39//10
f 13//10 39//10 34//10
f 13//10 2//10 39//10
f 35//4 25//4 33//4
f 33//4 25//4 23//4
f 31//10 38//10 28//10
f 28//10 38//10 19//10
f 20//10 28//10 19//10
f 34//8 39//8 36//8
f 36//8 39//8 40//8
f 39//7 22//7 40//7
f 40//7 22//7 24//7
f 37//1 17//1 38//1
f 38//1 17//1 19//1
f 26//2 15//2 30//2
f 30//2 15//2 29//2
f 29//2 15//2 16//2
f 21//2 29//2 16//2
f 25//10 35//10 24//10
f 24//10 35//10 36//10
f 40//10 24//10 36//10
# Vertices: 40, normals: 10, texture coordinates: 0, faces: 76

