# File generated by ImageToStl.com - Free Image and 3D model conversion tools

o obj1
v -12.96300125 11.91900253 -0.78499985
v -20.65100098 11.91900253 -0.78499985
v -17.79900169 6.97900009 -0.78499985
v 20.64900017 11.91900253 -0.78499985
v 12.9630003 11.91900253 -0.78499985
v 17.45499992 6.38700104 -0.78499985
v 2.51899934 -19.48500061 -0.78699875
v -2.59900093 -19.34500122 -0.78699875
v -0.00100076 -23.84700012 -0.78699875
v 18.48500061 1.21899986 -3.89500046
v 4.07299948 -19.2329998 -1.87899399
v 13.73900032 -8.70299911 -4.65499496
v 33.41300201 -19.29100037 -24.63100052
v 33.41300201 19.29100037 -39.36500168
v -0.00100076 38.58100128 -24.62699509
v 5.99699974 15.96300125 -4.40099716
v -4.06300068 16.27700043 -4.68099594
v -33.41300201 19.29100037 -39.36500168
v -33.41300201 -19.29100037 -24.63100052
v -19.04300117 1.63300133 -4.13900375
v -15.13300133 -6.61100006 -4.79899216
v -4.59900093 -18.92700005 -2.14899826
v 20.64900017 -11.91899967 -63.21300125
v -0.00100076 -38.58100128 -39.37099838
v -20.65100098 -11.91899967 -63.21300125
v -0.00100076 23.84700012 -63.20900345
v -2.13300085 -6.46100044 -63.21300125
v 3.26899934 -6.46100044 -63.21300125
v 5.96899939 -1.78499985 -63.21100235
v -4.8310008 -1.78499985 -63.21100235
v 3.26899934 2.89100075 -63.21100235
v -2.13300085 2.89100075 -63.21100235
v -0.25300074 8.91300201 35.99699783
v 3.16099954 8.17900085 34.83301163
v 0.04299927 17.14300156 35.14300919
v -1.00900078 -12.18099976 38.18700027
v 2.17099929 -10.50899982 36.88901138
v -0.9610008 -10.8569994 38.04899979
v 3.01899934 -10.06299973 36.54500198
v 23.54700089 0.73700142 28.16901016
v 7.31099939 -1.26299858 34.19900894
v 15.58699989 23.23100281 10.82100296
v -13.88900185 24.21500015 10.11900711
v -24.14500237 2.32900047 27.03300858
v -6.33500099 3.67900085 34.13701248
v -6.68300104 -5.66699982 35.10100174
v -15.5870018 -23.2310009 15.04500198
v 13.88700008 -24.21500015 15.74699783
v 2.79299927 -10.29899979 36.53900528
v 24.14500046 -2.32899857 -1.16498947
v -23.54900169 -0.73699951 -2.30099106
v 0.05499929 1.51900101 63.21300125
v 12.02099991 -8.38699913 54.72500992
v 12.38700008 9.23699951 53.12900162
v 15.02900028 -0.99300003 38.92900467
v 4.92099953 13.48300171 37.65100479
v -4.3310008 15.03499985 52.6609993
v -15.02900124 0.99300003 53.96699905
v -4.92300081 -13.4829998 55.24300003
v -12.38700104 -9.23699951 39.76700211
v 4.33099937 -15.03499985 40.23500443
v -12.02100086 8.38700104 38.16901016
v 3.26899934 2.89100075 -40.38100052
v 5.96899939 -1.78499985 -40.38100052
v 0.56899929 -1.78499985 -40.38100052
v -2.13300085 -6.46100044 -40.38100052
v -4.8310008 -1.78499985 -40.38100052
v 3.26899934 -6.46100044 -40.38100052
v -2.13300085 2.89100075 -40.38100052
vn 0 0 1
vn 0.57744 -0.3334 0.74526
vn 0.57762 -0.3337 0.74499
vn 0.57585 -0.33159 0.74729
vn 0.5773 -0.3334 0.74537
vn 0.57741 -0.33328 0.74533
vn 0.57733 -0.33343 0.74533
vn 0.93415 0.12732 0.33339
vn 0.57734 0.74532 0.33343
vn 4E-05 0.6666 0.74542
vn 0 0.66659 0.74543
vn 0 0.66648 0.74552
vn -6E-05 0.66661 0.74541
vn 6E-05 0.6666 0.74542
vn -0.57736 0.74531 0.3334
vn -0.93417 0.1273 0.33334
vn -0.57748 -0.33329 0.74527
vn -0.5773 -0.33347 0.74533
vn -0.57733 -0.33343 0.74533
vn -0.57726 -0.33372 0.74525
vn -0.57738 -0.33319 0.7454
vn -0.57732 -0.3333 0.74539
vn -0 -0.66659 -0.74543
vn 0.57735 -0.74532 -0.33342
vn 0.93416 -0.12731 -0.33337
vn 0.57733 0.33341 -0.74534
vn 0 0 -1
vn 0.00011 0.00036 -1
vn -0.00011 0.00037 -1
vn -0.00023 -0.00013 -1
vn -4E-05 9E-05 -1
vn 9E-05 6E-05 -1
vn -0.0002 0.00012 -1
vn 0 0.0001 -1
vn -0.57735 0.33342 -0.74532
vn -0.93418 -0.12729 -0.33333
vn -0.57737 -0.74531 -0.33339
vn -0.35683 -0.87271 0.33326
vn 0.35681 -0.87271 0.33326
vn 0.35682 0.8727 -0.33327
vn -0.35683 0.8727 -0.33327
vn 0.33788 0.08511 0.93733
vn 0.33768 0.08546 0.93737
vn 0.33765 0.08522 0.93741
vn 0.33351 0.08353 0.93904
vn 0.33765 0.08525 0.9374
vn 0.58578 0.61468 0.52823
vn 0.02608 0.96569 0.25839
vn -0.56795 0.65317 0.5008
vn -0.3754 0.10892 0.92044
vn -0.3754 0.10914 0.92041
vn -0.37538 0.10901 0.92044
vn -0.37492 0.10954 0.92056
vn -0.37529 0.10917 0.92046
vn -0.6091 -0.49468 0.6199
vn -0.04051 -0.8915 0.4512
vn 0.54448 -0.53235 0.64819
vn 0.54203 -0.53552 0.64763
vn 0.54456 -0.53319 0.64742
vn 0.54465 -0.53315 0.64739
vn 0.37552 -0.10913 -0.92037
vn 0.60902 0.49476 -0.61992
vn 0.60918 0.49465 -0.61985
vn 0.61071 0.49409 -0.61879
vn 0.60909 0.49465 -0.61994
vn 0.04051 0.89151 -0.45119
vn 0.04039 0.89145 -0.45132
vn -0.54451 0.53317 -0.64748
vn -0.5446 0.53313 -0.64744
vn -0.54451 0.53301 -0.64762
vn -0.54471 0.53311 -0.64737
vn -0.33763 -0.08508 -0.93743
vn -0.5858 -0.61469 -0.52819
vn -0.58579 -0.61468 -0.52822
vn -0.02641 -0.9656 -0.25868
vn -0.02022 -0.96751 -0.25204
vn -0.02608 -0.96568 -0.25843
vn -0.02593 -0.96571 -0.25831
vn 0.56805 -0.65337 -0.50044
vn 0.56791 -0.65319 -0.50083
vn 0.92067 -0.38585 0.0591
vn 0.94609 0.32358 -0.01453
vn -0.92068 0.38582 -0.05903
vn -0.94608 -0.32361 0.0146
vn 0.60956 0.05893 0.79055
vn 0.98265 -0.00361 0.18543
vn 0.80574 0.54141 -0.24013
vn 0.3234 0.94074 0.10207
vn 0.20217 0.64259 0.73906
vn -0.48105 0.43717 0.75992
vn -0.49574 -0.27343 0.82431
vn 0.1783 -0.50714 0.84322
vn -0.20223 -0.64269 -0.73895
vn -0.19955 -0.64231 -0.74001
vn -0.20224 -0.64276 -0.73889
vn -0.20223 -0.64276 -0.7389
vn 0.48089 -0.43716 -0.76002
vn 0.47816 -0.43856 -0.76094
vn 0.48103 -0.43715 -0.75994
vn 0.49596 0.27333 -0.82421
vn 0.49566 0.27332 -0.82439
vn -0.17832 0.50691 -0.84336
vn -0.17843 0.50718 -0.84317
vn -0.1783 0.50707 -0.84326
vn -0.60967 -0.05901 -0.79045
vn -0.60941 -0.05886 -0.79067
vn -0.98265 0.00359 -0.18542
vn -0.80578 -0.54137 0.24009
vn -0.3234 -0.94074 -0.10213
vn 0.28484 -0.91955 0.27072
vn 0.78194 -0.60836 -0.13587
vn -0.28487 0.91956 -0.27067
vn -0.78194 0.60836 0.13585
vn -0.866 -0.50004 -0
vn -0 -1 0
vn 0.86616 -0.49977 0
vn 0.86616 0.49977 0
vn 0 1 0
vn -0.866 0.50004 0
f 1//1 2//1 3//1
f 4//1 5//1 6//1
f 7//1 8//1 9//1
f 4//2 6//2 10//2
f 9//3 11//3 7//3
f 9//4 12//4 11//4
f 10//5 13//5 4//5
f 12//6 13//6 10//6
f 9//7 13//7 12//7
f 4//8 13//8 14//8
f 4//9 14//9 15//9
f 5//10 15//10 16//10
f 4//11 15//11 5//11
f 17//12 2//12 1//12
f 15//13 2//13 17//13
f 17//14 16//14 15//14
f 15//15 18//15 2//15
f 18//16 19//16 2//16
f 19//17 20//17 2//17
f 19//18 21//18 20//18
f 19//19 22//19 21//19
f 19//20 8//20 22//20
f 19//21 9//21 8//21
f 3//22 2//22 20//22
f 23//23 24//23 25//23
f 13//24 24//24 23//24
f 13//25 23//25 14//25
f 14//26 23//26 26//26
f 25//27 27//27 23//27
f 27//27 28//27 23//27
f 29//28 23//28 28//28
f 25//29 30//29 27//29
f 31//30 23//30 29//30
f 31//31 26//31 23//31
f 26//32 30//32 25//32
f 26//33 32//33 30//33
f 26//34 31//34 32//34
f 26//35 25//35 18//35
f 18//36 25//36 19//36
f 19//37 25//37 24//37
f 24//38 9//38 19//38
f 13//39 9//39 24//39
f 15//40 14//40 26//40
f 15//41 26//41 18//41
f 33//42 34//42 35//42
f 36//43 37//43 38//43
f 39//44 40//44 41//44
f 41//45 35//45 34//45
f 40//46 35//46 41//46
f 35//47 40//47 42//47
f 35//48 42//48 43//48
f 35//49 43//49 44//49
f 45//50 44//50 46//50
f 33//51 44//51 45//51
f 35//52 44//52 33//52
f 38//53 46//53 36//53
f 44//54 36//54 46//54
f 44//55 47//55 36//55
f 47//56 48//56 36//56
f 36//57 49//57 37//57
f 49//58 48//58 39//58
f 36//59 48//59 49//59
f 40//60 39//60 48//60
f 12//61 10//61 50//61
f 42//62 5//62 16//62
f 5//63 42//63 6//63
f 10//64 6//64 42//64
f 50//65 10//65 42//65
f 42//66 16//66 43//66
f 17//67 43//67 16//67
f 17//68 1//68 43//68
f 3//69 43//69 1//69
f 3//70 20//70 51//70
f 43//71 3//71 51//71
f 51//72 20//72 21//72
f 22//73 51//73 21//73
f 51//74 22//74 47//74
f 47//75 8//75 7//75
f 47//76 7//76 11//76
f 48//77 47//77 11//77
f 22//78 8//78 47//78
f 50//79 11//79 12//79
f 11//80 50//80 48//80
f 50//81 40//81 48//81
f 42//82 40//82 50//82
f 44//83 43//83 51//83
f 44//84 51//84 47//84
f 52//85 53//85 54//85
f 54//86 53//86 55//86
f 54//87 55//87 56//87
f 54//88 56//88 57//88
f 54//89 57//89 52//89
f 57//90 58//90 52//90
f 58//91 59//91 52//91
f 52//92 59//92 53//92
f 60//93 46//93 38//93
f 37//94 49//94 61//94
f 38//95 37//95 61//95
f 60//96 38//96 61//96
f 41//97 61//97 39//97
f 49//98 39//98 61//98
f 61//99 41//99 55//99
f 34//100 56//100 41//100
f 55//101 41//101 56//101
f 33//102 45//102 62//102
f 56//103 34//103 33//103
f 56//104 33//104 62//104
f 60//105 62//105 46//105
f 45//106 46//106 62//106
f 62//107 60//107 58//107
f 58//108 60//108 59//108
f 59//109 60//109 61//109
f 61//110 53//110 59//110
f 55//111 53//111 61//111
f 57//112 56//112 62//112
f 57//113 62//113 58//113
f 63//114 31//114 64//114
f 29//114 64//114 31//114
f 65//27 66//27 67//27
f 64//27 68//27 65//27
f 65//27 63//27 64//27
f 66//27 65//27 68//27
f 67//27 69//27 65//27
f 63//27 65//27 69//27
f 63//115 69//115 32//115
f 32//115 31//115 63//115
f 69//116 30//116 32//116
f 30//116 69//116 67//116
f 67//117 27//117 30//117
f 27//117 67//117 66//117
f 68//118 28//118 66//118
f 27//118 66//118 28//118
f 28//119 68//119 29//119
f 64//119 29//119 68//119
# Vertices: 69, normals: 119, texture coordinates: 0, faces: 134

