o obj1
v -6.6844101 -21.63120079 -10.8156004
v -10.8156004 -17.5 -6.6844101
v -17.5 -17.5 -17.5
v -17.5 -13.36880016 -6.6844101
v -21.63120079 -10.8156004 -6.6844101
v -24.18440056 -6.6844101 0
v -21.63120079 -6.6844101 4.13118982
v -28.31559944 0 10.8156004
v -17.5 -6.6844101 10.8156004
v -17.5 -4.13118982 17.5
v -13.36880016 -6.6844101 17.5
v -10.8156004 -6.6844101 21.63120079
v -17.5 -10.8156004 0
v -6.6844101 -10.8156004 17.5
v -0 -10.8156004 28.31559944
v -17.5 17.5 4.13118982
v -10.8156004 28.31559944 -0
v -14.94680023 17.5 -0
v -21.63120079 -6.6844101 -4.13118982
v -21.63120079 0 -0
v -17.5 -6.6844101 -10.8156004
v -13.36880016 -6.6844101 -17.5
v -10.8156004 -6.6844101 -21.63120079
v -10.8156004 -0 -17.5
v -6.6844101 -0 -24.18440056
v -21.63120079 6.6844101 4.13118982
v -21.63120079 10.8156004 6.6844101
v -17.5 10.8156004 -0
v -17.5 13.36880016 6.6844101
v 6.6844101 0 24.18440056
v -0 0 21.63120079
v -6.6844101 -4.13118982 21.63120079
v -17.5 0 14.94680023
v -17.5 6.6844101 10.8156004
v -10.8156004 0 17.5
v -10.8156004 17.5 6.6844101
v 6.6844101 -4.13118982 21.63120079
v -6.6844101 -17.5 13.36880016
v -6.6844101 -21.63120079 10.8156004
v -4.13118982 -17.5 17.5
v -17.5 -17.5 17.5
v -21.63120079 -10.8156004 6.6844101
v 0 10.8156004 28.31559944
v 10.8156004 -6.6844101 21.63120079
v 6.6844101 -21.63120079 10.8156004
v -0 -17.5 10.8156004
v -0 -24.18440056 6.6844101
v 17.5 -17.5 17.5
v 6.6844101 -17.5 13.36880016
v -4.13118982 -21.63120079 6.6844101
v -10.8156004 -28.31559944 0
v -17.5 -13.36880016 6.6844101
v -17.5 -17.5 4.13118982
v 6.6844101 -10.8156004 17.5
v -10.8156004 -17.5 6.6844101
v -6.6844101 -17.5 -13.36880016
v -4.13118982 -17.5 -17.5
v -6.6844101 -10.8156004 -17.5
v 0 -10.8156004 -28.31559944
v -14.94680023 -17.5 -0
v -17.5 -17.5 -4.13118982
v -6.6844101 -4.13118982 -21.63120079
v -21.63120079 10.8156004 -6.6844101
v -17.5 17.5 -17.5
v -17.5 6.6844101 -10.8156004
v -13.36880016 6.6844101 -17.5
v -10.8156004 6.6844101 -21.63120079
v -17.5 17.5 -4.13118982
v -17.5 13.36880016 -6.6844101
v -17.5 -4.13118982 -17.5
v -28.31559944 0 -10.8156004
v -17.5 0 -14.94680023
v -21.63120079 6.6844101 -4.13118982
v -24.18440056 6.6844101 -0
v -10.8156004 17.5 -6.6844101
v -6.6844101 21.63120079 10.8156004
v -6.6844101 17.5 13.36880016
v -4.13118982 17.5 17.5
v -6.6844101 10.8156004 17.5
v -17.5 17.5 17.5
v -13.36880016 6.6844101 17.5
v -10.8156004 6.6844101 21.63120079
v -6.6844101 0 24.18440056
v -17.5 4.13118982 17.5
v -6.6844101 4.13118982 21.63120079
v 10.8156004 6.6844101 21.63120079
v 6.6844101 4.13118982 21.63120079
v -0 -14.94680023 17.5
v 4.13118982 -17.5 17.5
v 21.63120079 -10.8156004 6.6844101
v 17.5 -6.6844101 10.8156004
v 10.8156004 0 17.5
v 13.36880016 -6.6844101 17.5
v 10.8156004 -6.6844101 -21.63120079
v 6.6844101 -10.8156004 -17.5
v 0 -14.94680023 -17.5
v -4.13118982 -21.63120079 -6.6844101
v 10.8156004 -17.5 6.6844101
v -0 -21.63120079 0
v 4.13118982 -21.63120079 6.6844101
v 17.5 -13.36880016 6.6844101
v -0 -17.5 -10.8156004
v 6.6844101 -4.13118982 -21.63120079
v 10.8156004 -0 -17.5
v 6.6844101 -0 -24.18440056
v 10.8156004 6.6844101 -21.63120079
v 0 -0 -21.63120079
v 6.6844101 4.13118982 -21.63120079
v -17.5 4.13118982 -17.5
v 0 24.18440056 -6.6844101
v 10.8156004 28.31559944 -0
v 4.13118982 21.63120079 -6.6844101
v 17.5 6.6844101 -10.8156004
v 21.63120079 10.8156004 -6.6844101
v 28.31559944 0 -10.8156004
v 17.5 13.36880016 -6.6844101
v 17.5 17.5 -4.13118982
v 0 17.5 -10.8156004
v -6.6844101 21.63120079 -10.8156004
v -6.6844101 17.5 -13.36880016
v -6.6844101 4.13118982 -21.63120079
v -6.6844101 10.8156004 -17.5
v 10.8156004 17.5 -6.6844101
v -4.13118982 21.63120079 -6.6844101
v 0 21.63120079 -0
v 4.13118982 21.63120079 6.6844101
v 6.6844101 21.63120079 10.8156004
v 0 17.5 10.8156004
v 4.13118982 17.5 17.5
v -0 14.94680023 17.5
v -4.13118982 21.63120079 6.6844101
v 10.8156004 17.5 6.6844101
v 14.94680023 17.5 0
v 17.5 10.8156004 -0
v 21.63120079 6.6844101 -4.13118982
v 6.6844101 10.8156004 17.5
v 6.6844101 17.5 13.36880016
v 17.5 17.5 17.5
v 17.5 6.6844101 10.8156004
v 21.63120079 10.8156004 6.6844101
v 21.63120079 6.6844101 4.13118982
v 24.18440056 6.6844101 0
v 21.63120079 -0 0
v 21.63120079 -10.8156004 -6.6844101
v 21.63120079 -6.6844101 -4.13118982
v 14.94680023 -17.5 0
v 10.8156004 -28.31559944 0
v 17.5 -17.5 -4.13118982
v 17.5 -10.8156004 0
v 13.36880016 6.6844101 17.5
v 17.5 4.13118982 17.5
v 28.31559944 -0 10.8156004
v 17.5 -0 14.94680023
v 17.5 -17.5 4.13118982
v 17.5 -4.13118982 17.5
v 6.6844101 -21.63120079 -10.8156004
v 4.13118982 -21.63120079 -6.6844101
v 4.13118982 -17.5 -17.5
v -0 -24.18440056 -6.6844101
v 6.6844101 -17.5 -13.36880016
v 10.8156004 -17.5 -6.6844101
v 17.5 -17.5 -17.5
v 17.5 -6.6844101 -10.8156004
v 13.36880016 -6.6844101 -17.5
v 17.5 -4.13118982 -17.5
v 17.5 -0 -14.94680023
v 17.5 4.13118982 -17.5
v 17.5 -13.36880016 -6.6844101
v 0 10.8156004 -28.31559944
v 0 14.94680023 -17.5
v 4.13118982 17.5 -17.5
v 6.6844101 21.63120079 -10.8156004
v -4.13118982 17.5 -17.5
v 17.5 17.5 -17.5
v 6.6844101 17.5 -13.36880016
v 13.36880016 6.6844101 -17.5
v 6.6844101 10.8156004 -17.5
v 17.5 13.36880016 6.6844101
v 0 24.18440056 6.6844101
v 17.5 17.5 4.13118982
v 21.63120079 -6.6844101 4.13118982
v 24.18440056 -6.6844101 0
vn -0.5 -0.80902 0.30902
vn -0.5 -0.80902 0.30902
vn -0.5 -0.80902 0.30902
vn -0.5 -0.80902 0.30902
vn -0.5 -0.80902 0.30901
vn -0.5 -0.80902 0.30902
vn -0.5 -0.80902 0.30902
vn -0.80902 0.30902 -0.5
vn -0.80902 0.30902 -0.5
vn -0.80902 0.30902 -0.5
vn -0.80902 0.30902 -0.5
vn -0.80902 0.30902 -0.5
vn -0.80902 0.30902 -0.5
vn -0.80902 0.30902 -0.5
vn -0.80902 0.30902 -0.5
vn -0.30901 0.5 0.80902
vn -0.30902 0.5 0.80902
vn -0.30902 0.5 0.80902
vn -0.30902 0.5 0.80902
vn -0.30902 0.5 0.80902
vn -0.30902 0.5 0.80902
vn -0.30902 0.5 0.80902
vn 0.80902 -0.30902 0.5
vn -0.80902 -0.30901 0.5
vn -0.80902 -0.30902 0.5
vn 0 0 1
vn 0.30902 -0.5 0.80902
vn -0.80902 0.30902 0.5
vn -0.80902 0.30902 0.5
vn -1 0 0
vn -0.30902 -0.5 0.80902
vn -0.30902 -0.5 0.80902
vn -0.30902 -0.5 0.80902
vn -0.30902 -0.5 0.80902
vn -0.30902 -0.5 0.80902
vn -0.30901 -0.5 0.80902
vn -0.30902 -0.5 0.80902
vn -0.30902 -0.5 0.80902
vn -0.30902 -0.5 0.80902
vn -0.80902 -0.30902 -0.5
vn -0.80902 -0.30902 -0.5
vn -0.80902 -0.30901 -0.5
vn -0.80902 -0.30902 -0.5
vn -0.80902 -0.30902 -0.5
vn -0.80902 -0.30902 -0.5
vn -0.80902 0.30902 0.5
vn -0.5 -0.80902 -0.30902
vn -1 0 0
vn -0.80902 -0.30902 0.5
vn -0.30901 -0.5 -0.80902
vn 0 -1 0
vn -0.30902 -0.5 -0.80902
vn 0.30902 -0.5 -0.80902
vn 0.30902 -0.5 -0.80902
vn 0.30902 -0.5 -0.80902
vn -0.80902 -0.30902 -0.5
vn -0.80902 -0.30902 -0.5
vn -0.80902 -0.30902 -0.5
vn -0.80902 -0.30902 -0.5
vn -0.30901 0.5 -0.80902
vn -0.30902 0.5 -0.80902
vn -0.30902 0.5 -0.80902
vn -0.30902 0.5 -0.80902
vn -0.5 -0.80902 -0.30901
vn -0.5 -0.80902 -0.30902
vn -0.5 -0.80902 -0.30902
vn -0 0 -1
vn -0.30902 -0.5 -0.80902
vn -0.80902 -0.30902 0.5
vn -0.80902 0.30902 0.5
vn -0.80902 0.30902 0.5
vn -0.80902 0.30902 0.5
vn -0.80902 -0.30902 0.5
vn -0.80902 -0.30902 -0.5
vn -0.80902 -0.30902 -0.5
vn -0.5 0.80902 0.30902
vn -0.5 0.80902 0.30902
vn -0.80902 -0.30902 0.5
vn -0.5 0.80902 -0.30902
vn 0 1 0
vn -0.80902 0.30902 0.5
vn -0.80902 0.30902 0.5
vn -0.80902 0.30901 0.5
vn -0.80902 0.30902 0.5
vn -0.5 0.80902 -0.30902
vn -0.5 0.80902 -0.30902
vn -0.80902 -0.30902 0.5
vn -0.80902 -0.30902 0.5
vn -0.80902 -0.30902 0.5
vn -0.5 0.80902 0.30902
vn -0.5 0.80902 0.30901
vn -0.30902 -0.5 0.80902
vn -0.30902 -0.5 0.80902
vn 0 0 1
vn -0.80902 0.30902 0.5
vn -0.80902 0.30902 0.5
vn 0.30902 -0.5 0.80902
vn 0.30902 -0.5 0.80902
vn 0.30902 -0.5 0.80902
vn -0.80902 -0.30902 0.5
vn 0.30902 0.5 0.80902
vn 0.30902 0.5 0.80902
vn 0.5 -0.80902 0.30902
vn 0.5 -0.80902 0.30902
vn 0.5 -0.80902 0.30902
vn 0.30902 -0.5 0.80902
vn 0.30902 -0.5 0.80902
vn -0.5 -0.80902 -0.30902
vn -0.5 -0.80902 -0.30902
vn -0.5 -0.80902 -0.30902
vn -0.80902 -0.30902 0.5
vn 0.5 -0.80902 0.30902
vn -0.5 -0.80902 0.30902
vn -0.5 -0.80902 0.30902
vn 0.80902 -0.30901 0.5
vn 0.80902 -0.30902 0.5
vn 0.80902 0.30902 0.5
vn 0.80902 0.30902 0.5
vn 0.80902 0.30902 0.5
vn 0.80902 0.30902 0.5
vn 0.5 -0.80902 -0.30902
vn 0.5 -0.80902 -0.30902
vn 0.5 -0.80902 -0.30902
vn 0.5 -0.80902 -0.30902
vn 0.5 -0.80902 -0.30902
vn 0.5 -0.80902 -0.30902
vn 0.5 -0.80902 -0.30902
vn 0.5 -0.80902 -0.30902
vn 0.30902 0.5 -0.80902
vn 0.80902 -0.30902 -0.5
vn 0.80902 -0.30902 -0.5
vn -0.5 -0.80902 -0.30902
vn -0.80902 -0.30902 0.5
vn -0.30902 0.5 -0.80902
vn -0.30902 0.5 -0.80902
vn -0.30902 0.5 -0.80902
vn -0.5 0.80902 -0.30902
vn -0.5 0.80902 -0.30901
vn -0.30902 -0.5 -0.80902
vn -0.30902 -0.5 -0.80902
vn 0 0 -1
vn 0.30902 0.5 -0.80902
vn 0.30902 0.5 -0.80902
vn 0.30901 0.5 -0.80902
vn 0.30902 0.5 -0.80902
vn 0.30902 0.5 -0.80902
vn 0.30902 0.5 -0.80902
vn 0.30902 0.5 -0.80902
vn 0.30902 0.5 -0.80902
vn 0.30902 0.5 -0.80902
vn -0.5 0.80902 0.30902
vn -0.5 0.80902 0.30902
vn -0.5 0.80902 0.30902
vn -0.5 0.80902 0.30902
vn -0.5 0.80902 0.30902
vn -0.5 0.80902 0.30902
vn -0.5 0.80902 0.30902
vn -0.5 0.80902 0.30902
vn -0.5 0.80902 -0.30902
vn -0.30902 0.5 -0.80902
vn -0.30902 0.5 -0.80902
vn 0.5 0.80902 0.30902
vn 0.5 0.80902 0.30902
vn 0.5 0.80902 0.30902
vn 0.5 0.80902 0.30902
vn 0.30902 0.5 0.80902
vn 0.30902 0.5 0.80902
vn 0.30902 0.5 0.80902
vn -0.30902 -0.5 0.80902
vn 0.80902 0.30902 0.5
vn 0.80902 0.30902 0.5
vn 0.80902 0.30902 0.5
vn 0.80902 0.30902 0.5
vn 0.80902 0.30902 0.5
vn 0.80902 0.30901 0.5
vn 0.5 0.80902 0.30902
vn -0.30902 0.5 0.80902
vn -0.30902 0.5 0.80902
vn -0.30902 0.5 0.80902
vn -0 -1 0
vn 0.80902 -0.30902 0.5
vn 0.80902 -0.30902 0.5
vn 0.80902 -0.30902 0.5
vn 0.80902 -0.30902 0.5
vn 0.80902 -0.30902 0.5
vn 0.80902 -0.30902 0.5
vn 0.80902 -0.30902 0.5
vn 0.80902 -0.30902 0.5
vn 0.30902 -0.5 0.80902
vn 0.30902 -0.5 0.80902
vn 0.30902 -0.5 0.80902
vn 0.30901 -0.5 0.80902
vn 0.30902 0.5 0.80902
vn 0.30902 0.5 0.80902
vn 0.5 -0.80902 0.30901
vn 0.5 -0.80902 0.30902
vn 1 0 0
vn 1 0 0
vn 0.30902 -0.5 0.80902
vn 0.30902 -0.5 0.80902
vn 0.80902 -0.30902 0.5
vn -0.5 -0.80902 0.30902
vn -0.5 -0.80902 -0.30902
vn -0.5 -0.80902 -0.30902
vn -0.5 -0.80902 -0.30902
vn -0.5 -0.80902 -0.30902
vn -0.5 -0.80902 0.30902
vn -0.5 -0.80902 0.30902
vn 0.5 -0.80902 0.30902
vn -0.30902 -0.5 -0.80902
vn 0.30902 -0.5 -0.80902
vn 0.30902 -0.5 -0.80902
vn -0.30902 -0.5 -0.80902
vn 0.80902 -0.30902 -0.5
vn 0.80902 -0.30902 -0.5
vn 0.80902 -0.30901 -0.5
vn 0.80902 -0.30902 -0.5
vn -0.30902 -0.5 -0.80902
vn -0.30902 -0.5 -0.80902
vn -0.30902 -0.5 -0.80902
vn 0.80902 0.30902 -0.5
vn 0.80902 0.30902 -0.5
vn 0.80902 0.30902 -0.5
vn 0.30902 0.5 -0.80902
vn 0.30902 0.5 -0.80902
vn 0.30902 -0.5 -0.80902
vn 0.30902 -0.5 -0.80902
vn 0.30901 -0.5 -0.80902
vn 0.30902 -0.5 -0.80902
vn 0.30902 -0.5 -0.80902
vn 0.30902 -0.5 -0.80902
vn 0.30902 -0.5 -0.80902
vn 0.80902 0.30902 -0.5
vn -0.30902 -0.5 -0.80902
vn -0.80902 0.30902 -0.5
vn -0.30902 -0.5 -0.80902
vn -0.5 0.80902 -0.30902
vn -0.5 0.80902 -0.30902
vn -0.5 0.80902 -0.30902
vn -0.80902 0.30902 -0.5
vn -0.80902 0.30901 -0.5
vn 0.5 0.80902 -0.30902
vn 0.5 0.80902 -0.30902
vn -0.30902 0.5 -0.80902
vn -0.30902 0.5 -0.80902
vn 0.5 0.80902 0.30902
vn 0.5 0.80902 0.30902
vn -0.5 0.80902 -0.30902
vn 0.80902 0.30902 -0.5
vn 0.5 0.80902 0.30902
vn 0.80902 -0.30902 -0.5
vn 0.80902 -0.30902 -0.5
vn 0.5 0.80902 -0.30902
vn 0.5 0.80902 -0.30901
vn 0.5 0.80902 -0.30902
vn 0.5 0.80902 -0.30902
vn 0.5 0.80902 -0.30902
vn 0.5 0.80902 -0.30902
vn 0.5 0.80902 -0.30902
vn 0 1 -0
vn 0.30902 0.5 0.80902
vn -0.30902 0.5 0.80902
vn -0.30902 0.5 0.80902
vn 0.5 0.80902 -0.30902
vn 0.5 0.80902 -0.30902
vn 0.30902 0.5 0.80902
vn -0.5 0.80902 -0.30902
vn 0.5 0.80902 -0.30902
vn -0.80902 0.30902 -0.5
vn -0.5 0.80902 -0.30902
vn 0.80902 -0.30902 -0.5
vn 0.5 0.80902 0.30902
vn 0.80902 0.30902 -0.5
vn 0.30902 0.5 0.80902
vn 0.80902 -0.30902 -0.5
vn 0.80902 -0.30902 -0.5
vn 0.80902 -0.30902 -0.5
vn 0.5 -0.80902 -0.30902
vn 0.5 -0.80902 -0.30902
vn 0.5 -0.80902 0.30902
vn 0.80902 0.30902 -0.5
vn 0.80902 0.30902 0.5
vn 0.80902 0.30902 0.5
vn 0.80902 0.30902 -0.5
vn 0.5 0.80902 0.30902
vn 0.5 0.80902 0.30901
vn 0.5 0.80902 0.30902
vn 0.80902 0.30902 -0.5
vn 0.30902 0.5 0.80902
vn 0.5 -0.80902 0.30902
vn 0.5 -0.80902 0.30902
vn 0.5 -0.80902 0.30902
vn 0.5 -0.80902 -0.30901
vn 0.5 -0.80902 -0.30902
vn 0.80902 0.30902 -0.5
vn 0.80902 0.30901 -0.5
vn -0.30902 0.5 -0.80902
vn 0.30901 0.5 0.80902
vn 0.80902 0.30902 -0.5
vn 0.5 -0.80902 0.30902
f 1//1 2//1 3//1
f 4//2 5//2 3//2
f 6//3 7//3 8//3
f 9//4 10//4 8//4
f 11//5 12//5 10//5
f 5//6 13//6 6//6
f 12//7 14//7 15//7
f 16//8 17//8 18//8
f 19//9 5//9 6//9
f 6//10 8//10 20//10
f 21//11 3//11 5//11
f 3//12 22//12 23//12
f 23//13 24//13 25//13
f 26//14 8//14 27//14
f 28//15 27//15 16//15
f 29//16 16//16 27//16
f 30//17 31//17 15//17
f 32//18 12//18 15//18
f 10//19 33//19 8//19
f 34//20 27//20 8//20
f 12//21 35//21 10//21
f 16//22 36//22 17//22
f 15//23 37//23 30//23
f 38//24 39//24 40//24
f 14//25 40//25 15//25
f 14//26 41//26 40//26
f 14//27 12//27 41//27
f 42//28 41//28 9//28
f 11//29 41//29 12//29
f 10//26 41//26 11//26
f 9//30 41//30 10//30
f 31//31 30//31 43//31
f 37//32 44//32 30//32
f 45//33 46//33 47//33
f 48//34 49//34 45//34
f 47//35 50//35 51//35
f 52//36 42//36 53//36
f 42//37 9//37 8//37
f 44//38 54//38 48//38
f 55//39 53//39 51//39
f 8//40 7//40 42//40
f 51//41 2//41 1//41
f 56//42 57//42 1//42
f 57//43 58//43 59//43
f 60//44 51//44 53//44
f 13//45 53//45 42//45
f 7//46 6//46 42//46
f 42//47 6//47 13//47
f 3//30 61//30 4//30
f 61//48 53//48 13//48
f 13//49 5//49 61//49
f 61//50 5//50 4//50
f 61//51 3//51 2//51
f 61//51 60//51 53//51
f 61//52 2//52 51//52
f 23//53 25//53 62//53
f 56//54 1//54 3//54
f 58//55 3//55 23//55
f 62//56 25//56 59//56
f 63//57 64//57 65//57
f 66//58 64//58 67//58
f 24//59 67//59 25//59
f 63//60 68//60 69//60
f 24//61 23//61 70//61
f 71//62 72//62 70//62
f 65//63 71//63 63//63
f 22//64 70//64 23//64
f 6//65 71//65 19//65
f 70//66 21//66 71//66
f 22//67 3//67 70//67
f 70//30 3//30 21//30
f 5//68 71//68 21//68
f 19//69 71//69 5//69
f 28//70 68//70 63//70
f 71//71 73//71 63//71
f 71//72 6//72 20//72
f 71//73 20//73 74//73
f 8//74 74//74 20//74
f 74//75 63//75 73//75
f 8//76 26//76 74//76
f 28//77 63//77 74//77
f 27//78 74//78 26//78
f 28//79 74//79 27//79
f 28//48 16//48 68//48
f 68//30 64//30 69//30
f 75//80 64//80 68//80
f 68//80 16//80 18//80
f 68//81 18//81 17//81
f 17//82 36//82 76//82
f 76//83 77//83 78//83
f 78//84 79//84 43//84
f 27//85 80//85 29//85
f 80//86 76//86 36//86
f 36//80 16//80 80//80
f 16//30 29//30 80//30
f 27//87 34//87 80//87
f 80//88 81//88 82//88
f 82//89 35//89 83//89
f 34//90 8//90 84//90
f 84//91 82//91 81//91
f 33//92 84//92 8//92
f 84//93 35//93 82//93
f 33//30 10//30 84//30
f 84//94 10//94 35//94
f 83//95 43//95 85//95
f 12//96 83//96 35//96
f 83//97 12//97 32//97
f 86//98 43//98 87//98
f 83//99 31//99 43//99
f 15//100 83//100 32//100
f 31//101 83//101 15//101
f 44//102 37//102 15//102
f 41//51 53//51 55//51
f 40//51 41//51 38//51
f 40//103 39//103 46//103
f 44//104 15//104 54//104
f 40//105 88//105 15//105
f 38//106 41//106 39//106
f 46//107 39//107 47//107
f 53//30 41//30 52//30
f 41//108 42//108 52//108
f 39//109 41//109 55//109
f 47//110 39//110 50//110
f 39//111 55//111 51//111
f 39//112 51//112 50//112
f 15//113 88//113 89//113
f 89//114 46//114 45//114
f 49//115 89//115 45//115
f 89//116 54//116 15//116
f 48//51 89//51 49//51
f 54//26 89//26 48//26
f 90//117 91//117 48//117
f 92//118 30//118 44//118
f 93//119 44//119 48//119
f 30//120 87//120 43//120
f 94//121 95//121 59//121
f 96//122 57//122 59//122
f 97//123 51//123 1//123
f 45//124 98//124 48//124
f 47//125 51//125 99//125
f 45//126 47//126 100//126
f 90//127 48//127 101//127
f 102//128 1//128 57//128
f 59//129 103//129 94//129
f 104//130 105//130 106//130
f 103//131 59//131 105//131
f 58//132 23//132 59//132
f 57//67 3//67 58//67
f 56//51 3//51 57//51
f 60//133 61//133 51//133
f 23//134 62//134 59//134
f 59//135 107//135 105//135
f 105//136 108//136 106//136
f 71//137 65//137 109//137
f 109//138 66//138 67//138
f 64//30 109//30 65//30
f 66//67 109//67 64//67
f 71//139 109//139 72//139
f 109//140 67//140 24//140
f 70//141 109//141 24//141
f 110//142 111//142 112//142
f 113//143 114//143 115//143
f 116//144 117//144 114//144
f 118//145 119//145 110//145
f 120//146 64//146 119//146
f 25//147 67//147 121//147
f 64//148 122//148 67//148
f 107//149 59//149 25//149
f 123//150 111//150 117//150
f 63//151 69//151 64//151
f 64//152 75//152 119//152
f 119//153 124//153 110//153
f 110//154 125//154 111//154
f 126//155 127//155 111//155
f 127//156 128//156 129//156
f 129//157 130//157 43//157
f 43//158 79//158 82//158
f 109//30 70//30 72//30
f 73//159 71//159 74//159
f 68//160 17//160 75//160
f 124//161 17//161 110//161
f 78//162 43//162 130//162
f 76//163 78//163 128//163
f 125//164 110//164 17//164
f 131//165 17//165 76//165
f 78//26 80//26 79//26
f 77//80 80//80 78//80
f 80//166 77//166 76//166
f 85//167 82//167 83//167
f 82//168 79//168 80//168
f 80//26 84//26 81//26
f 34//30 84//30 80//30
f 43//169 82//169 85//169
f 127//170 132//170 111//170
f 117//171 111//171 133//171
f 114//172 117//172 134//172
f 115//173 114//173 135//173
f 43//174 136//174 129//174
f 137//175 127//175 129//175
f 136//176 43//176 86//176
f 127//177 137//177 138//177
f 87//178 30//178 86//178
f 136//179 86//179 138//179
f 88//26 40//26 89//26
f 89//180 40//180 46//180
f 86//181 30//181 92//181
f 139//182 140//182 138//182
f 141//183 142//183 140//183
f 115//184 142//184 143//184
f 144//185 115//185 145//185
f 146//186 147//186 148//186
f 149//187 148//187 144//187
f 86//188 150//188 138//188
f 151//189 86//189 92//189
f 152//190 151//190 153//190
f 90//191 152//191 91//191
f 154//192 90//192 101//192
f 155//94 151//94 92//94
f 155//193 92//193 44//193
f 153//194 155//194 152//194
f 155//195 44//195 93//195
f 155//196 91//196 152//196
f 155//26 93//26 48//26
f 155//197 48//197 91//197
f 154//198 148//198 149//198
f 154//197 101//197 48//197
f 48//51 98//51 154//51
f 146//51 148//51 154//51
f 100//199 47//199 147//199
f 98//200 147//200 154//200
f 98//201 45//201 147//201
f 45//202 100//202 147//202
f 147//203 47//203 99//203
f 156//204 147//204 157//204
f 158//205 156//205 102//205
f 59//206 158//206 96//206
f 97//207 1//207 159//207
f 99//208 159//208 147//208
f 99//209 51//209 159//209
f 51//210 97//210 159//210
f 1//211 102//211 159//211
f 157//212 147//212 159//212
f 159//213 102//213 156//213
f 102//180 57//180 158//180
f 158//67 57//67 96//67
f 158//214 59//214 95//214
f 154//215 147//215 146//215
f 160//216 156//216 158//216
f 156//217 161//217 147//217
f 158//67 95//67 162//67
f 156//218 160//218 162//218
f 162//219 95//219 94//219
f 94//220 103//220 105//220
f 94//221 105//221 104//221
f 163//222 144//222 162//222
f 94//223 164//223 162//223
f 94//224 104//224 165//224
f 165//225 166//225 115//225
f 165//141 104//141 167//141
f 167//226 115//226 166//226
f 161//227 148//227 147//227
f 168//228 144//228 148//228
f 106//229 167//229 104//229
f 108//230 169//230 106//230
f 25//231 169//231 107//231
f 163//232 115//232 144//232
f 105//233 169//233 108//233
f 105//234 107//234 169//234
f 25//235 121//235 169//235
f 67//236 169//236 121//236
f 67//237 122//237 169//237
f 169//238 170//238 171//238
f 171//239 118//239 172//239
f 169//240 122//240 173//240
f 173//241 120//241 119//241
f 122//67 64//67 173//67
f 173//80 64//80 120//80
f 119//242 118//242 173//242
f 173//243 170//243 169//243
f 118//244 110//244 172//244
f 172//245 174//245 175//245
f 110//246 112//246 172//246
f 123//247 174//247 172//247
f 172//248 112//248 111//248
f 123//249 172//249 111//249
f 171//80 175//80 174//80
f 174//80 123//80 117//80
f 117//197 116//197 174//197
f 174//250 116//250 114//250
f 176//251 106//251 174//251
f 113//252 174//252 114//252
f 169//253 177//253 106//253
f 106//254 176//254 167//254
f 167//255 113//255 115//255
f 135//256 142//256 115//256
f 142//257 134//257 140//257
f 178//258 138//258 140//258
f 138//259 132//259 127//259
f 129//26 78//26 130//26
f 128//260 78//260 129//260
f 179//261 76//261 128//261
f 179//262 17//262 131//262
f 127//263 179//263 128//263
f 125//264 17//264 179//264
f 179//265 127//265 126//265
f 111//266 179//266 126//266
f 125//267 179//267 111//267
f 119//268 17//268 124//268
f 119//269 75//269 17//269
f 131//270 76//270 179//270
f 142//271 135//271 114//271
f 114//272 134//272 142//272
f 138//197 178//197 180//197
f 180//198 134//198 117//198
f 132//80 138//80 180//80
f 180//80 117//80 133//80
f 133//273 111//273 180//273
f 180//274 111//274 132//274
f 129//80 138//80 137//80
f 138//26 129//26 136//26
f 90//275 154//275 149//275
f 90//276 181//276 152//276
f 142//277 152//277 143//277
f 182//278 90//278 149//278
f 115//279 182//279 145//279
f 182//280 149//280 144//280
f 182//281 144//281 145//281
f 181//282 90//282 182//282
f 143//283 182//283 115//283
f 152//284 182//284 143//284
f 141//285 152//285 142//285
f 86//286 151//286 150//286
f 151//287 152//287 139//287
f 152//288 141//288 140//288
f 140//289 139//289 152//289
f 138//197 151//197 139//197
f 138//26 150//26 151//26
f 151//197 155//197 153//197
f 157//290 159//290 156//290
f 161//291 156//291 162//291
f 144//292 168//292 162//292
f 160//51 158//51 162//51
f 164//293 94//293 165//293
f 163//294 165//294 115//294
f 163//197 162//197 165//197
f 162//67 164//67 165//67
f 166//197 165//197 167//197
f 148//197 162//197 168//197
f 148//51 161//51 162//51
f 177//295 169//295 171//295
f 175//296 171//296 172//296
f 171//260 173//260 118//260
f 170//67 173//67 171//67
f 171//67 174//67 177//67
f 177//297 174//297 106//297
f 167//67 176//67 174//67
f 113//197 167//197 174//197
f 180//298 178//298 140//298
f 140//299 134//299 180//299
f 152//300 181//300 182//300
# Vertices: 182, normals: 300, texture coordinates: 0, faces: 360

