# File generated by ImageToStl.com - Free Image and 3D model conversion tools

o obj1
v -26 -15 0
v -26 -15 3.5
v -26 15 0
v -26 15 3.5
v 26 -15 0
v 26 -15 3.5
v 26 15 0
v 26 15 3.5
v -15 -7.5 3.5
v -15 7.5 3.5
v 15 7.5 3.5
v 15 -7.5 3.5
v -15 -7.5 99.6704
v -15 7.5 99.6704
v 15 -7.5 99.6704
v 15 7.5 99.6704
v -22.5 -13 106
v -22.5 13 106
v 22.5 13 106
v 22.5 -13 106
v -22.5 -13 117
v -22.5 13 117
v 20.5 13 108
v -20.5 13 108
v 20.5 13 117
v 22.5 13 117
v -20.5 13 117
v -20.5 -13 108
v -20.5 -13 117
v 22.5 -13 117
v 20.5 -13 117
v 20.5 -13 108
vn -1 -0 -0
vn 0 -1 0
vn -0 -0 -1
vn 0 1 0
vn 0 -0 1
vn 1 0 -0
vn -0.64496 -0 -0.76422
vn 0 0.75484 -0.65591
vn 0 -0.75484 -0.65591
vn 0.64496 0 -0.76422
f 1//1 2//1 3//1
f 3//1 2//1 4//1
f 2//2 1//2 5//2
f 6//2 2//2 5//2
f 1//3 3//3 5//3
f 5//3 3//3 7//3
f 3//4 4//4 7//4
f 7//4 4//4 8//4
f 9//5 2//5 6//5
f 4//5 2//5 9//5
f 10//5 11//5 4//5
f 4//5 9//5 10//5
f 8//5 11//5 6//5
f 8//5 4//5 11//5
f 11//5 12//5 6//5
f 12//5 9//5 6//5
f 6//6 5//6 7//6
f 8//6 6//6 7//6
f 9//1 13//1 10//1
f 10//1 13//1 14//1
f 13//2 9//2 12//2
f 15//2 13//2 12//2
f 15//6 12//6 11//6
f 16//6 15//6 11//6
f 10//4 14//4 11//4
f 11//4 14//4 16//4
f 17//7 18//7 13//7
f 13//7 18//7 14//7
f 18//8 19//8 14//8
f 14//8 19//8 16//8
f 20//9 17//9 13//9
f 15//9 20//9 13//9
f 15//10 16//10 20//10
f 20//10 16//10 19//10
f 17//1 21//1 18//1
f 18//1 21//1 22//1
f 23//4 19//4 24//4
f 18//4 22//4 24//4
f 18//4 24//4 19//4
f 19//4 23//4 25//4
f 19//4 25//4 26//4
f 24//4 22//4 27//4
f 28//2 17//2 20//2
f 28//2 29//2 21//2
f 30//2 31//2 20//2
f 31//2 32//2 20//2
f 21//2 17//2 28//2
f 32//2 28//2 20//2
f 30//6 20//6 19//6
f 26//6 30//6 19//6
f 29//5 27//5 22//5
f 21//5 29//5 22//5
f 25//5 31//5 30//5
f 26//5 25//5 30//5
f 32//1 31//1 23//1
f 23//1 31//1 25//1
f 24//5 28//5 32//5
f 23//5 24//5 32//5
f 24//6 27//6 29//6
f 28//6 24//6 29//6
# Vertices: 32, normals: 10, texture coordinates: 0, faces: 60

